<?xml version="1.0" encoding="UTF-8"?>
<svg version="1.1" xmlns="http://www.w3.org/2000/svg" width="1024" height="1024">
<path d="M0 0 C337.92 0 675.84 0 1024 0 C1024 337.92 1024 675.84 1024 1024 C686.08 1024 348.16 1024 0 1024 C0 686.08 0 348.16 0 0 Z " fill="#CCCCCC" transform="translate(0,0)"/>
<path d="M0 0 C0.75023437 0.5775 1.50046875 1.155 2.2734375 1.75 C5.93648111 4.48222535 9.62641472 7.07537888 13.4609375 9.5625 C20.11422417 13.9780959 26.38124462 18.81053524 32.6484375 23.75 C33.53660156 24.44222656 34.42476562 25.13445312 35.33984375 25.84765625 C40.59635154 29.98540808 45.59966797 34.33427976 50.51953125 38.8671875 C52.70445486 40.88535665 52.70445486 40.88535665 55.6484375 42.75 C55.6484375 43.41 55.6484375 44.07 55.6484375 44.75 C55.05522705 44.60925049 54.4620166 44.46850098 53.85083008 44.32348633 C45.7791187 42.6170936 37.84328049 42.41069362 29.6340332 42.43432617 C27.34993437 42.43748067 25.06714245 42.4139644 22.78320312 42.38867188 C-5.06238623 42.2669308 -31.22100655 54.00654787 -52.3515625 71.75 C-53.021875 72.26949219 -53.6921875 72.78898437 -54.3828125 73.32421875 C-67.75171003 83.9281852 -77.4214642 100.41715751 -84.3515625 115.75 C-84.8259375 116.79800781 -85.3003125 117.84601563 -85.7890625 118.92578125 C-89.44581738 127.66499008 -91.0058665 136.43364305 -92.3515625 145.75 C-92.48433594 146.59304688 -92.61710937 147.43609375 -92.75390625 148.3046875 C-97.08291519 179.73447841 -86.79397866 211.62562948 -67.91259766 236.65771484 C-61.56982127 244.74271307 -54.69188103 251.69334012 -46.3515625 257.75 C-45.80693359 258.1517041 -45.26230469 258.5534082 -44.70117188 258.96728516 C-34.00033219 266.7827413 -21.64877337 274.69183063 -8.3125 276.58203125 C9.43214915 279.17717783 18.33005148 289.75333716 29.6484375 302.75 C30.31568848 303.51030518 30.98293945 304.27061035 31.67041016 305.05395508 C32.83451291 306.38233017 33.99651073 307.71255477 35.15576172 309.04516602 C37.15950311 311.33370481 39.21624191 313.57202698 41.2734375 315.8125 C44.72013411 319.62448753 47.77799302 323.49063077 50.6484375 327.75 C43.36181045 329.49931118 36.4442811 330.10390326 28.9609375 330.0625 C27.87586914 330.05686035 26.79080078 330.0512207 25.67285156 330.04541016 C0.11834031 329.67080847 -23.45300454 324.03241126 -46.3515625 312.75 C-47.01381836 312.42773438 -47.67607422 312.10546875 -48.35839844 311.7734375 C-87.99951588 292.27975456 -117.5052796 257.42429727 -132.0703125 215.9609375 C-145.74668853 175.31717493 -143.26554796 130.08994808 -124.38208008 91.49291992 C-123.0439961 88.82404311 -121.67406208 86.17325505 -120.28466797 83.53076172 C-119.44905926 81.93606525 -118.6351666 80.33003371 -117.82421875 78.72265625 C-114.07069635 71.47555068 -109.43231079 65.12300813 -104.3515625 58.75 C-103.72290283 57.95674316 -103.72290283 57.95674316 -103.08154297 57.14746094 C-86.93849734 36.92457214 -28.96374776 -15.3960121 0 0 Z " fill="#033E6D" transform="translate(475.3515625,242.25)"/>
<path d="M0 0 C3.96 0 7.92 0 12 0 C12 3.63 12 7.26 12 11 C15.3 11 18.6 11 22 11 C22 16 22 16 20.9375 17.8125 C18.00731249 19.60842137 15.3527047 19.18977574 12 19 C12.01160156 19.63808594 12.02320313 20.27617187 12.03515625 20.93359375 C12.04869141 22.17302734 12.04869141 22.17302734 12.0625 23.4375 C12.07410156 24.26121094 12.08570313 25.08492188 12.09765625 25.93359375 C12 28 12 28 11 29 C7.3308423 29.14310287 3.67284559 29.04221662 0 29 C0 32.63 0 36.26 0 40 C-1.65 40.66 -3.3 41.32 -5 42 C-6.78995259 43.6411291 -6.78995259 43.6411291 -8.3125 45.625 C-12.58059309 50.74301639 -17.28536315 55.33736769 -22.0390625 60 C-26.01741399 63.9322702 -29.79979046 67.96187071 -33.45019531 72.20068359 C-35.38255979 74.44415023 -37.37725658 76.62722894 -39.375 78.8125 C-43.62514793 83.5269498 -47.64752601 88.39467502 -51.63818359 93.32910156 C-53.20163412 95.24739762 -54.78144067 97.15152865 -56.36328125 99.0546875 C-63.14302972 107.2179643 -69.70564211 115.45532763 -76 124 C-76.92931607 125.23303391 -77.86041155 126.46472806 -78.79296875 127.6953125 C-89.83896077 142.28289181 -100.30196923 157.23176893 -110.36230469 172.51464844 C-111.49820623 174.23848232 -112.63708782 175.96035479 -113.77832031 177.68066406 C-121.87575682 189.8886476 -129.61330883 202.23571042 -136.9921875 214.890625 C-140.0705798 220.15717715 -143.28189116 225.33264075 -146.5793457 230.46459961 C-151.26719436 237.82855377 -155.25086114 245.59321559 -159.359375 253.2890625 C-159.91753906 254.33191406 -160.47570312 255.37476563 -161.05078125 256.44921875 C-162.20332227 258.60327816 -163.35162559 260.75960933 -164.49609375 262.91796875 C-165.32560547 264.46291016 -165.32560547 264.46291016 -166.171875 266.0390625 C-166.6678418 266.96928223 -167.16380859 267.89950195 -167.67480469 268.85791016 C-169 271 -169 271 -171 272 C-171.53367187 271.33355469 -172.06734375 270.66710937 -172.6171875 269.98046875 C-177.45772971 263.99260079 -182.44425408 258.22455836 -187.66015625 252.55859375 C-189.66905848 250.36188097 -191.62514113 248.13450631 -193.5625 245.875 C-196.73137734 242.22147083 -200.1235208 238.83539027 -203.59375 235.46875 C-205.55588482 233.45565064 -207.3903178 231.41326275 -209.22265625 229.28515625 C-213.26185537 224.63221573 -217.57108925 220.28180234 -221.9375 215.9375 C-223.07735352 214.7918457 -223.07735352 214.7918457 -224.24023438 213.62304688 C-228.45534346 209.41513695 -232.75282183 205.36773069 -237.27563477 201.49169922 C-239.65921606 199.42973098 -241.87231476 197.32715573 -244 195 C-244 194.34 -244 193.68 -244 193 C-244.56976563 192.91492188 -245.13953125 192.82984375 -245.7265625 192.7421875 C-248.67214955 191.78056974 -250.14018643 190.26828537 -252.375 188.125 C-256.38958451 184.40517207 -260.5000007 180.92434338 -264.8125 177.5625 C-265.39708984 177.10649414 -265.98167969 176.65048828 -266.58398438 176.18066406 C-269.63873155 173.80864454 -272.70866609 171.45700883 -275.78515625 169.11328125 C-276.38803467 168.65300537 -276.99091309 168.19272949 -277.61206055 167.71850586 C-278.76858753 166.83713652 -279.92753209 165.95892862 -281.08911133 165.08422852 C-282.41064303 164.07926852 -283.70819037 163.0428895 -285 162 C-285 161.67 -285 161.34 -285 161 C-277.45467746 160.69585067 -269.91000497 160.46636423 -262.35990906 160.32644176 C-258.85163683 160.25919845 -255.3476191 160.16841167 -251.84179688 160.01928711 C-224.91352883 158.90402688 -224.91352883 158.90402688 -215.5234375 167.16015625 C-213.80942802 168.81802481 -212.18531927 170.51303483 -210.59565735 172.29016113 C-207.85397774 175.22802894 -204.72182422 177.69963375 -201.625 180.25 C-196.80811876 184.38014719 -192.0664194 188.59056549 -187.37890625 192.8671875 C-184.29684434 195.63041542 -181.15126349 198.31623472 -178 201 C-177.69408936 200.50822266 -177.38817871 200.01644531 -177.07299805 199.50976562 C-170.41763294 188.83342495 -163.62052293 178.29607892 -156.39746094 167.99462891 C-154.95938073 165.94202316 -153.53029912 163.88333648 -152.1015625 161.82421875 C-129.55210031 129.4560892 -103.95437507 99.90118439 -76.125 72 C-75.53700623 71.40932739 -74.94901245 70.81865479 -74.34320068 70.21008301 C-59.52090396 55.33660539 -59.52090396 55.33660539 -53.22924805 50.69311523 C-50.26740816 48.46186541 -49.09077317 47.34364129 -48.125 43.6875 C-48.08375 42.800625 -48.0425 41.91375 -48 41 C-44.04 41 -40.08 41 -36 41 C-36 37.37 -36 33.74 -36 30 C-32.04 30 -28.08 30 -24 30 C-24 26.04 -24 22.08 -24 18 C-20.04 18 -16.08 18 -12 18 C-12 15.69 -12 13.38 -12 11 C-8.37 11 -4.74 11 -1 11 C-0.67 7.37 -0.34 3.74 0 0 Z " fill="#04A1C2" transform="translate(709,296)"/>
<path d="M0 0 C0.66 0 1.32 0 2 0 C2.78689763 41.49977032 -7.75979515 82.02929624 -34 115 C-34.47856445 115.60263672 -34.95712891 116.20527344 -35.45019531 116.82617188 C-43.64537558 127.02685297 -52.43287887 136.23079274 -63 144 C-61.56842514 147.2715005 -59.81676394 149.42257491 -57.28466797 151.92651367 C-56.52403046 152.68377243 -55.76339294 153.44103119 -54.97970581 154.22123718 C-54.15882477 155.0286586 -53.33794373 155.83608002 -52.4921875 156.66796875 C-51.65156769 157.50338699 -50.81094788 158.33880524 -49.94485474 159.19953918 C-47.25959926 161.86697692 -44.56775275 164.52763253 -41.875 167.1875 C-39.17599274 169.85894681 -36.47843144 172.53181375 -33.78372192 175.20759583 C-32.10599564 176.87300321 -30.42560511 178.53573146 -28.74240112 180.19560242 C-27.98806793 180.94340469 -27.23373474 181.69120697 -26.45654297 182.46166992 C-25.78750946 183.12245041 -25.11847595 183.7832309 -24.4291687 184.46403503 C-23 186 -23 186 -23 187 C-30.74514952 187.30314142 -38.48887576 187.53313273 -46.23849106 187.67355824 C-49.83871732 187.7410154 -53.43484731 187.83222097 -57.03271484 187.98071289 C-82.22434985 188.993767 -82.22434985 188.993767 -88.49243164 184.19995117 C-91.62736186 181.13936484 -93.78008204 177.75970773 -96 174 C-100.05774211 168.98670361 -100.05774211 168.98670361 -105.6875 166.5 C-106.450625 166.665 -107.21375 166.83 -108 167 C-108.763125 167.165 -109.52625 167.33 -110.3125 167.5 C-110.869375 167.665 -111.42625 167.83 -112 168 C-110.46473612 163.91619808 -108.56013315 160.0880911 -106.5 156.25 C-106.1503418 155.59733154 -105.80068359 154.94466309 -105.44042969 154.2722168 C-101.59789754 147.16488177 -97.50318953 140.21213924 -93.359375 133.27734375 C-91.9631118 130.93820167 -90.57503677 128.59432724 -89.1875 126.25 C-78.4458228 108.15514172 -67.09221538 90.49607908 -55.3125 73.0625 C-54.66512375 72.10215347 -54.66512375 72.10215347 -54.00466919 71.12240601 C-44.4999127 57.04053934 -34.44562057 43.39721256 -24 30 C-23.55124512 29.42362793 -23.10249023 28.84725586 -22.64013672 28.25341797 C-17.16806419 21.23268183 -11.63485613 14.27106847 -5.97265625 7.40234375 C-4.56986268 5.69399118 -3.20639121 3.95301886 -1.87109375 2.19140625 C-1.25363281 1.46824219 -0.63617187 0.74507813 0 0 Z " fill="#04A0C1" transform="translate(667,394)"/>
<path d="M0 0 C4.41665225 -0.02945039 8.83327867 -0.04694816 13.25 -0.0625 C14.48492187 -0.07087891 15.71984375 -0.07925781 16.9921875 -0.08789062 C27.50411606 -0.11555359 37.73456563 0.12526335 47.9375 2.8125 C48.61224365 2.98990723 49.2869873 3.16731445 49.98217773 3.35009766 C51.9923812 3.88574146 53.99673375 4.43902453 56 5 C57.11632812 5.31066406 58.23265625 5.62132812 59.3828125 5.94140625 C87.42528798 14.17500777 110.51463481 28.34189484 132 48 C132.81726563 48.73347656 133.63453125 49.46695313 134.4765625 50.22265625 C146.44899572 61.5202796 155.47099483 75.47608385 163 90 C163.42925781 90.70511719 163.85851562 91.41023438 164.30078125 92.13671875 C165.29492756 94.78592429 164.89947881 96.34823465 164 99 C162.609375 100.59765625 162.609375 100.59765625 160.75 102.0625 C157.00742968 105.15128798 153.37758691 108.33361804 149.8125 111.625 C149.26730713 112.12749268 148.72211426 112.62998535 148.16040039 113.14770508 C141.93602603 118.92625648 135.96061063 124.95158987 130 131 C127.56253146 128.56253146 127.01851004 126.5631072 125.875 123.3125 C120.87081644 110.079863 113.98123574 98.88770038 105 88 C104.15888672 86.91138672 104.15888672 86.91138672 103.30078125 85.80078125 C96.37854101 77.20464916 86.78387695 70.70908401 77.5625 64.8125 C72.41093019 61.47428276 68.79543231 57.76807792 65 53 C64.44441406 52.47019531 63.88882813 51.94039063 63.31640625 51.39453125 C62 50 62 50 62 48 C61.19175781 47.67322266 61.19175781 47.67322266 60.3671875 47.33984375 C57.18217375 45.53710495 54.74191278 43.08322313 52.125 40.5625 C45.41432065 34.24298349 38.3341756 28.57297036 31 23 C30.3615918 22.50999512 29.72318359 22.01999023 29.06542969 21.51513672 C21.07388675 15.38250473 12.98303654 9.50157588 4.51977539 4.03295898 C2.99815292 3.04473975 1.49661516 2.02569746 0 1 C0 0.67 0 0.34 0 0 Z " fill="#04A2C4" transform="translate(487,238)"/>
<path d="M0 0 C2.09458561 0.95123122 4.16629137 1.94372413 6.23901367 2.94165039 C16.23207205 7.59370034 26.55109062 10.44013184 37.17651367 13.25415039 C37.25116517 19.19487826 37.30535139 25.13532769 37.34130859 31.07641602 C37.35631251 33.09371706 37.37672222 35.11098595 37.40283203 37.12817383 C37.43958721 40.04264302 37.45632435 42.95667765 37.46948242 45.87133789 C37.48496628 46.76029755 37.50045013 47.6492572 37.5164032 48.56515503 C37.52034312 63.52093706 30.19906719 76.49517269 20.17651367 87.25415039 C14.92831136 92.21891321 9.04721113 96.12811473 2.86401367 99.81665039 C2.2773291 100.17581543 1.69064453 100.53498047 1.08618164 100.9050293 C-1.55258171 102.41386258 -3.38086685 103.27522751 -6.44848633 103.12915039 C-22.78238606 97.11139786 -36.04829171 82.82103855 -43.56958008 67.53149414 C-43.98336914 66.4499707 -44.3971582 65.36844727 -44.82348633 64.25415039 C-45.09346436 63.56361572 -45.36344238 62.87308105 -45.64160156 62.16162109 C-48.85215625 52.55072511 -48.15121098 42.56493238 -48.01098633 32.56665039 C-47.99591114 30.68970801 -47.98222775 28.81275391 -47.9699707 26.93579102 C-47.93719219 22.37495059 -47.88556687 17.81468224 -47.82348633 13.25415039 C-47.12731201 13.07021729 -46.4311377 12.88628418 -45.71386719 12.69677734 C-39.86456363 11.13007977 -34.09554921 9.45949063 -28.38598633 7.44165039 C-27.6637085 7.18955811 -26.94143066 6.93746582 -26.19726562 6.67773438 C-20.65864619 4.68864597 -15.53963076 2.20457243 -10.43676758 -0.74194336 C-6.54294092 -2.23777811 -3.81183814 -1.55913315 0 0 Z " fill="#71C537" transform="translate(512.823486328125,340.745849609375)"/>
<path d="M0 0 C-0.55145271 5.23880078 -1.42922093 9.97350697 -3 15 C-3.639375 14.835 -4.27875 14.67 -4.9375 14.5 C-12.76094119 13.1823274 -12.76094119 13.1823274 -19.9375 15.875 C-22.701079 20.06224091 -23.35997921 24.0804372 -24 29 C-23.10023438 28.9278125 -22.20046875 28.855625 -21.2734375 28.78125 C-9.50763796 27.93241476 2.20759451 27.89401184 14 28 C18.49582768 36.46378449 22.05978326 45.24440609 25.625 54.125 C26.20277311 55.55352779 26.78089613 56.98191411 27.359375 58.41015625 C27.91958797 59.79674691 28.47949441 61.18346147 29.0390625 62.5703125 C29.2922525 63.19761261 29.5454425 63.82491272 29.80630493 64.47122192 C31.12799008 67.76471135 32.39901179 71.07106344 33.62255859 74.40185547 C34.63021216 77.76606819 34.63021216 77.76606819 36 79 C36.42821045 77.88141602 36.8564209 76.76283203 37.29760742 75.61035156 C38.90798322 71.40508352 40.52068153 67.20070918 42.1340332 62.99658203 C42.82801276 61.18724947 43.52138729 59.37768472 44.21411133 57.56787109 C48.01009335 47.65172454 51.84717464 37.77325115 56 28 C62.27 28 68.54 28 75 28 C71.61888412 38.14334764 71.61888412 38.14334764 69.6796875 43 C69.2350415 44.1147168 68.79039551 45.22943359 68.33227539 46.37792969 C67.85137451 47.57321289 67.37047363 48.76849609 66.875 50 C66.49865921 50.93761169 66.49865921 50.93761169 66.11471558 51.89416504 C61.53604523 63.29571112 56.87783304 74.66494068 52.18878174 86.02148438 C51.44429821 87.82506057 50.70091114 89.62908979 49.9586792 91.43359375 C37.73157383 121.13557799 37.73157383 121.13557799 27.625 126.9375 C18.6512111 129.74729692 6.93424653 129.36813486 -1.53125 125.265625 C-3 124 -3 124 -3.87109375 122.21875 C-4.05442809 119.06317713 -2.93920032 117.07055676 -1.5625 114.25 C-1.08941406 113.26515625 -0.61632812 112.2803125 -0.12890625 111.265625 C0.42990234 110.14414062 0.42990234 110.14414062 1 109 C6.75 110.875 6.75 110.875 9 112 C13.73177192 112.39431433 16.09400722 112.45299639 20.375 110.3125 C23.1702983 107.84997531 24.22517757 106.61583802 25 103 C24.52526474 97.55426817 22.47173356 93.12171416 20.2109375 88.2265625 C19.82942535 87.38515717 19.44791321 86.54375183 19.05484009 85.67684937 C17.83488173 82.98981201 16.60530035 80.30731559 15.375 77.625 C14.17235206 74.98654264 12.97172915 72.34717067 11.77130127 69.70770264 C10.98321131 67.97500849 10.19443729 66.24262532 9.40496826 64.51055908 C6.91082456 59.03160544 4.45228821 53.53851933 2.0390625 48.0234375 C1.75807709 47.38169586 1.47709167 46.73995422 1.18759155 46.07876587 C-0.26596689 42.74080499 -1.66823691 39.3884099 -3 36 C-3.33 38.64 -3.66 41.28 -4 44 C-10.27 44 -16.54 44 -23 44 C-23 63.14 -23 82.28 -23 102 C-29.27 102 -35.54 102 -42 102 C-42 82.86 -42 63.72 -42 44 C-45.96 44 -49.92 44 -54 44 C-54 39.05 -54 34.1 -54 29 C-50.37 29 -46.74 29 -43 29 C-43.0825 27.370625 -43.165 25.74125 -43.25 24.0625 C-43.22911674 15.92847068 -40.31444436 9.41559846 -34.72265625 3.5078125 C-25.85126854 -4.25716631 -10.60422412 -4.22815954 0 0 Z " fill="#069FC1" transform="translate(678,631)"/>
<path d="M0 0 C0.74548096 0.00612305 1.49096191 0.01224609 2.2590332 0.01855469 C11.00978906 0.26556332 17.70684166 3.29385701 24.6875 8.4375 C25.0175 6.1275 25.3475 3.8175 25.6875 1.4375 C32.2875 1.4375 38.8875 1.4375 45.6875 1.4375 C45.6875 34.4375 45.6875 67.4375 45.6875 101.4375 C39.0875 101.4375 32.4875 101.4375 25.6875 101.4375 C25.3575 90.5475 25.0275 79.6575 24.6875 68.4375 C22.0475 70.4175 19.4075 72.3975 16.6875 74.4375 C6.79642242 79.13207115 -3.07456064 78.16314783 -13.1953125 74.7578125 C-21.63662808 71.18241818 -26.97273777 65.37834153 -31.3125 57.4375 C-31.72628906 56.72335937 -32.14007813 56.00921875 -32.56640625 55.2734375 C-37.17927154 45.91912532 -36.93971914 33.17889865 -33.75 23.375 C-29.17316665 12.9411002 -22.05857419 6.82265579 -12.05078125 1.80078125 C-7.82097719 0.25825083 -4.45283274 -0.06242524 0 0 Z " fill="#06416E" transform="translate(313.3125,657.5625)"/>
<path d="M0 0 C7.27503285 6.20351638 11.152933 14.76466498 13 24 C13 28.62 13 33.24 13 38 C-5.48 38 -23.96 38 -43 38 C-38.63774645 46.73499737 -38.63774645 46.73499737 -31 52 C-17.86469234 52.91101245 -17.86469234 52.91101245 -6 48 C-4.68 47.34 -3.36 46.68 -2 46 C2.95 50.455 2.95 50.455 8 55 C4.9385557 61.12288859 0.6149879 64.57742196 -5.625 67.375 C-11.23170342 69.23353276 -16.70929708 69.38921133 -22.5625 69.4375 C-23.87371826 69.45272705 -23.87371826 69.45272705 -25.21142578 69.46826172 C-35.93777876 69.32551175 -44.23028832 66.46699564 -52 59 C-60.78834217 49.34135599 -63.37986716 40.29523623 -63.203125 27.3046875 C-62.54331443 16.57007714 -57.60035667 8.01565385 -49.60546875 0.85546875 C-34.84511211 -10.18574291 -15.3672715 -9.84308894 0 0 Z " fill="#069FC0" transform="translate(513,665)"/>
<path d="M0 0 C4.38471938 0.4916689 8.06232892 2.32743716 12 4.1875 C21.663247 8.60956611 31.7641772 11.25460824 42 14 C42.0746515 19.94072787 42.12883772 25.8811773 42.16479492 31.82226562 C42.17979884 33.83956667 42.20020855 35.85683556 42.22631836 37.87402344 C42.26307353 40.78849263 42.27981068 43.70252726 42.29296875 46.6171875 C42.30845261 47.50614716 42.32393646 48.39510681 42.33988953 49.31100464 C42.34382694 64.25724055 35.0289732 77.25467157 25 88 C18.28069656 94.26529645 8.48094927 103 -1 103 C-1 95.08 -1 87.16 -1 79 C-0.34 79 0.32 79 1 79 C1.08765625 78.31808594 1.1753125 77.63617188 1.265625 76.93359375 C2.18134189 73.27559701 3.8685914 70.2912822 5.75 67.0625 C6.13687988 66.38735352 6.52375977 65.71220703 6.92236328 65.01660156 C8.27182517 62.67194429 9.63472417 60.33548346 11 58 C11.54430664 57.06591309 12.08861328 56.13182617 12.64941406 55.16943359 C14.3862582 52.19331447 16.12901697 49.22076613 17.875 46.25 C18.71369629 44.82119507 18.71369629 44.82119507 19.56933594 43.36352539 C20.10075195 42.46496826 20.63216797 41.56641113 21.1796875 40.640625 C21.65132324 39.84172852 22.12295898 39.04283203 22.60888672 38.21972656 C23.95658829 36.0692698 25.4772804 34.0302928 27 32 C22.05 32 17.1 32 12 32 C11.34 33.98 10.68 35.96 10 38 C9.24473951 39.59973512 8.4507952 41.18184489 7.6171875 42.7421875 C7.17246094 43.58007812 6.72773437 44.41796875 6.26953125 45.28125 C5.80933594 46.1371875 5.34914063 46.993125 4.875 47.875 C4.40707031 48.75414062 3.93914062 49.63328125 3.45703125 50.5390625 C2.3087907 52.69494271 1.15636097 54.84846777 0 57 C-0.66 56.67 -1.32 56.34 -2 56 C-1.88272207 48.1853481 -1.757886 40.3708437 -1.62768555 32.55639648 C-1.5842582 29.89561735 -1.5425891 27.23480893 -1.50268555 24.57397461 C-1.44517128 20.75886185 -1.38142332 16.94389758 -1.31640625 13.12890625 C-1.29969376 11.93100967 -1.28298126 10.7331131 -1.26576233 9.49891663 C-1.24581711 8.3978508 -1.22587189 7.29678497 -1.20532227 6.16235352 C-1.18977798 5.18750504 -1.1742337 4.21265656 -1.15821838 3.20826721 C-1 1 -1 1 0 0 Z " fill="#4CAA38" transform="translate(508,340)"/>
<path d="M0 0 C6.6 0 13.2 0 20 0 C24.5 9 24.5 9 25.92285156 12.671875 C26.24288147 13.49212158 26.56291138 14.31236816 26.89263916 15.1574707 C27.22197449 16.01300537 27.55130981 16.86854004 27.890625 17.75 C28.24010193 18.64871826 28.58957886 19.54743652 28.949646 20.47338867 C30.05338361 23.31420361 31.15177394 26.15705045 32.25 29 C33.00225019 30.93893945 33.75485097 32.87774292 34.5078125 34.81640625 C36.34259765 39.5427088 38.1725936 44.27083986 40 49 C41.70075174 46.44887239 42.74980102 44.36071632 43.86352539 41.54443359 C44.22052017 40.64695404 44.57751495 39.74947449 44.94532776 38.82479858 C45.32559616 37.85909943 45.70586456 36.89340027 46.09765625 35.8984375 C46.49198349 34.90623199 46.88631073 33.91402649 47.29258728 32.89175415 C48.552515 29.7207965 49.8079118 26.54807367 51.0625 23.375 C52.3209657 20.19491063 53.58044421 17.01524099 54.84312439 13.83682251 C55.62916815 11.85799375 56.41272422 9.87817476 57.19361877 7.89730835 C57.5474614 7.00613312 57.90130402 6.11495789 58.26586914 5.19677734 C58.57738419 4.4086264 58.88889923 3.62047546 59.20985413 2.80844116 C60 1 60 1 61 0 C62.41570123 -0.08651611 63.835595 -0.10704904 65.25390625 -0.09765625 C66.53491211 -0.09282227 66.53491211 -0.09282227 67.84179688 -0.08789062 C69.18854492 -0.07532227 69.18854492 -0.07532227 70.5625 -0.0625 C71.46419922 -0.05798828 72.36589844 -0.05347656 73.29492188 -0.04882812 C75.53001314 -0.03700225 77.76497437 -0.0205222 80 0 C78.01288698 7.53192057 75.17947231 14.52890126 72.01571655 21.63763428 C70.56924181 24.89024372 69.14339205 28.15184292 67.71875 31.4140625 C67.41962204 32.09864532 67.12049408 32.78322815 66.81230164 33.48855591 C63.1513245 41.9009908 59.66705434 50.38629573 56.1875 58.875 C55.87541595 59.63594971 55.56333191 60.39689941 55.24179077 61.1809082 C53.49067844 65.45238287 51.74469465 69.72589048 50 74 C43.4 74 36.8 74 30 74 C26.83511661 66.42757963 23.69518654 58.84520689 20.56640625 51.2578125 C20.16352386 50.28108582 19.76064148 49.30435913 19.34555054 48.29803467 C17.66170563 44.21567896 15.97793818 40.13329224 14.2956543 36.05029297 C13.05345736 33.03576656 11.81022156 30.02167149 10.56640625 27.0078125 C10.16958649 26.04562805 9.77276672 25.0834436 9.36392212 24.09210205 C6.64253426 17.50949589 3.84952251 10.96253607 0.97631836 4.44482422 C0 2 0 2 0 0 Z " fill="#04406D" transform="translate(368,659)"/>
<path d="M0 0 C0 5.94 0 11.88 0 18 C-1.815 18.061875 -3.63 18.12375 -5.5 18.1875 C-11.43910023 18.68534665 -15.5416053 20.00088717 -20 24 C-23.17447799 28.19850315 -24.09599931 32.12453847 -24.20532227 37.30957031 C-24.22526749 38.15013977 -24.24521271 38.99070923 -24.26576233 39.85675049 C-24.29083107 41.20383087 -24.29083107 41.20383087 -24.31640625 42.578125 C-24.33718735 43.5046991 -24.35796844 44.43127319 -24.37937927 45.38592529 C-24.44466961 48.34054272 -24.50366431 51.29524768 -24.5625 54.25 C-24.60570473 56.25521732 -24.64931965 58.26042585 -24.69335938 60.265625 C-24.80110052 65.17699499 -24.90032658 70.08843313 -25 75 C-31.27 75 -37.54 75 -44 75 C-44 50.58 -44 26.16 -44 1 C-38.06 1 -32.12 1 -26 1 C-25.67 4.3 -25.34 7.6 -25 11 C-24.030625 9.9275 -23.06125 8.855 -22.0625 7.75 C-15.08569703 0.82934836 -9.90874532 0 0 0 Z " fill="#069FC0" transform="translate(583,658)"/>
<path d="M0 0 C5.09620539 3.01237564 8.70841667 7.93775001 10.5625 13.5 C11.11826068 20.11568967 11.21774172 26.74390507 7.5625 32.5 C2.09480305 38.60740542 -3.11722766 41.43778827 -11.3125 41.9375 C-17.57159267 41.79631746 -21.47800539 39.24110951 -25.97265625 35.078125 C-30.71229303 29.93776091 -32.01379194 23.70594882 -31.8046875 16.8984375 C-30.79923427 10.33090259 -27.65892032 4.96174703 -22.4375 0.875 C-15.67600202 -3.09836776 -7.16657735 -3.04785474 0 0 Z " fill="#D1D2D2" transform="translate(328.4375,676.5)"/>
<path d="M0 0 C6.27 0 12.54 0 19 0 C19 24.42 19 48.84 19 74 C12.73 74 6.46 74 0 74 C0 49.58 0 25.16 0 0 Z " fill="#039FC1" transform="translate(594,659)"/>
<path d="M0 0 C3.96 0 7.92 0 12 0 C12 3.63 12 7.26 12 11 C15.3 11 18.6 11 22 11 C22 16 22 16 20.9375 17.8125 C18.00731249 19.60842137 15.3527047 19.18977574 12 19 C12.01160156 19.63808594 12.02320313 20.27617187 12.03515625 20.93359375 C12.04417969 21.75988281 12.05320312 22.58617187 12.0625 23.4375 C12.07410156 24.26121094 12.08570313 25.08492188 12.09765625 25.93359375 C12 28 12 28 11 29 C7.3308423 29.14310287 3.67284559 29.04221662 0 29 C0 32.63 0 36.26 0 40 C-0.33 40 -0.66 40 -1 40 C-1 36.7 -1 33.4 -1 30 C-4.96 30 -8.92 30 -13 30 C-13 33.63 -13 37.26 -13 41 C-16.63 41 -20.26 41 -24 41 C-24 44.63 -24 48.26 -24 52 C-27.96 52 -31.92 52 -36 52 C-36 44.74 -36 37.48 -36 30 C-32.04 30 -28.08 30 -24 30 C-24 26.04 -24 22.08 -24 18 C-20.04 18 -16.08 18 -12 18 C-12 15.69 -12 13.38 -12 11 C-8.37 11 -4.74 11 -1 11 C-0.67 7.37 -0.34 3.74 0 0 Z " fill="#54B1C2" transform="translate(709,296)"/>
<path d="M0 0 C4.02512032 1.04796032 7.42101311 2.72938657 11.11328125 4.609375 C18.92245588 8.44454362 26.7427446 11.00239727 35.12724304 13.24171448 C37.46053886 13.90477377 39.75199358 14.65450112 42.05078125 15.4284668 C42.85 15.69692917 43.64921875 15.96539154 44.47265625 16.24198914 C45.37757813 16.54759514 45.37757813 16.54759514 46.30078125 16.859375 C46.35057595 22.51528674 46.38668621 28.17106813 46.41064453 33.82714844 C46.42064258 35.74741848 46.43424546 37.66767353 46.45166016 39.58789062 C46.47618317 42.36331911 46.48732656 45.13854465 46.49609375 47.9140625 C46.50641632 48.7592746 46.51673889 49.60448669 46.52737427 50.47531128 C46.53041354 66.97512653 40.45968846 80.79621152 29.30078125 92.859375 C28.6975 93.55417969 28.09421875 94.24898438 27.47265625 94.96484375 C21.09260042 101.91355674 9.49937869 111.6983109 0 113.23046875 C-3.81072396 112.70656314 -6.67696171 110.91793374 -9.88671875 108.921875 C-10.54873291 108.51582031 -11.21074707 108.10976563 -11.89282227 107.69140625 C-17.74885386 104.00319488 -22.84064909 99.79547503 -27.69921875 94.859375 C-28.405625 94.15167969 -29.11203125 93.44398438 -29.83984375 92.71484375 C-45.56867247 76.05549272 -47.33319467 58.19077397 -46.94921875 36.421875 C-46.92910365 34.41863784 -46.91086182 32.41538096 -46.89453125 30.41210938 C-46.85097743 25.56070039 -46.78223269 20.7102626 -46.69921875 15.859375 C-46.15391006 15.73245773 -45.60860138 15.60554047 -45.04676819 15.47477722 C-34.75189198 13.05510658 -24.77793327 10.61758821 -15.13671875 6.171875 C-14.25048828 5.78193359 -13.36425781 5.39199219 -12.45117188 4.99023438 C-1.10446359 -0.05754079 -1.10446359 -0.05754079 0 0 Z M-9.44921875 6.984375 C-14.90901815 9.62114092 -20.40067147 12.0310926 -26.07421875 14.171875 C-26.70295898 14.41373535 -27.33169922 14.6555957 -27.97949219 14.90478516 C-31.4281364 16.18383015 -34.84298671 17.1603286 -38.43994141 17.93823242 C-39.64077866 18.19959236 -39.64077866 18.19959236 -40.86587524 18.4662323 C-41.4708786 18.59596939 -42.07588196 18.72570648 -42.69921875 18.859375 C-42.79919878 24.31790009 -42.87120388 29.77587504 -42.91894531 35.23510742 C-42.93887803 37.08643903 -42.96603443 38.93770921 -43.00097656 40.78881836 C-43.20539131 51.90837935 -42.98017987 61.43254744 -38.69921875 71.859375 C-38.16300903 73.19307129 -38.16300903 73.19307129 -37.6159668 74.55371094 C-31.16733538 89.73717519 -17.50318332 100.06166179 -3.734375 108.1796875 C-0.01154336 109.42301323 2.64723072 108.17829287 6.0625 106.51171875 C22.62993082 96.80130202 36.65473783 83.95900212 41.86083984 64.7980957 C42.50170552 60.51724101 42.42282419 56.28704631 42.3984375 51.96484375 C42.39702255 51.01748856 42.3956076 50.07013336 42.39414978 49.09407043 C42.38856736 46.07830605 42.37601807 43.06261682 42.36328125 40.046875 C42.35826398 37.99804795 42.35370147 35.94921973 42.34960938 33.90039062 C42.33860368 28.88668994 42.32135113 23.8730452 42.30078125 18.859375 C41.66277588 18.68921875 41.02477051 18.5190625 40.36743164 18.34375 C28.64189087 15.17679062 17.30055161 11.95413015 6.48071289 6.34960938 C0.09971158 3.06185969 -3.30917547 3.90956269 -9.44921875 6.984375 Z " fill="#DFE4DC" transform="translate(507.69921875,335.140625)"/>
<path d="M0 0 C4.95 0 9.9 0 15 0 C13.70878712 2.58242575 12.44128424 5.0138522 10.96875 7.4765625 C10.57518311 8.13865723 10.18161621 8.80075195 9.77612305 9.48291016 C9.14444214 10.54324463 9.14444214 10.54324463 8.5 11.625 C4.34939023 18.62071817 0.35281125 25.68831398 -3.51171875 32.84619141 C-6.04876826 37.48928999 -8.73244061 41.82934631 -12 46 C-12.66 46 -13.32 46 -14 46 C-15.38525391 44.01904297 -15.38525391 44.01904297 -16.9765625 41.2421875 C-17.56163574 40.22979004 -18.14670898 39.21739258 -18.74951172 38.17431641 C-19.36842285 37.08554199 -19.98733398 35.99676758 -20.625 34.875 C-21.25293457 33.7823584 -21.88086914 32.6897168 -22.52783203 31.56396484 C-23.78138654 29.38098967 -25.03192238 27.19627801 -26.27929688 25.00976562 C-27.74153494 22.45209382 -29.21651733 19.90292166 -30.703125 17.359375 C-31.42721541 16.11466016 -32.15118705 14.86987621 -32.875 13.625 C-33.49117188 12.56539063 -34.10734375 11.50578125 -34.7421875 10.4140625 C-36 8 -36 8 -36 6 C-31.71 6 -27.42 6 -23 6 C-19.7 11.94 -16.4 17.88 -13 24 C-8.15111259 16.19447393 -4.04129483 8.24424146 0 0 Z " fill="#D5D8D4" transform="translate(520,372)"/>
<path d="M0 0 C16.32921437 -0.62804671 16.32921437 -0.62804671 22 4 C25.61489169 7.89296028 25.55884469 11.17126643 25.421875 16.30078125 C24.75447566 20.5709011 23.21291454 22.15218938 20 25 C16.21004892 27.61899921 12.16915192 27.22571887 7.75 27.125 C5.1925 27.08375 2.635 27.0425 0 27 C0 18.09 0 9.18 0 0 Z " fill="#C3C7C7" transform="translate(283,767)"/>
<path d="M0 0 C0.66 0.33 1.32 0.66 2 1 C1.03881042 3.41913498 0.44723395 4.73562496 -1.82836914 6.08081055 C-2.55660889 6.34676025 -3.28484863 6.61270996 -4.03515625 6.88671875 C-4.84533203 7.18513672 -5.65550781 7.48355469 -6.49023438 7.79101562 C-7.33908203 8.08685547 -8.18792969 8.38269531 -9.0625 8.6875 C-10.29516602 9.14866211 -10.29516602 9.14866211 -11.55273438 9.61914062 C-17.05363721 11.59704196 -22.19368588 12.46141542 -28 13 C-27.95538844 18.45914733 -27.88508717 23.91718791 -27.79248047 29.37573242 C-27.76451316 31.22687906 -27.74318004 33.07813974 -27.72900391 34.92944336 C-27.6394311 45.97377083 -27.18385051 55.63910909 -23 66 C-22.64309082 66.88921143 -22.28618164 67.77842285 -21.91845703 68.69458008 C-16.82608247 80.66254746 -6.82424585 90.20077001 4 97 C5.22783203 97.78890625 5.22783203 97.78890625 6.48046875 98.59375 C10.77417169 101.1829176 13.83589401 102.66206487 19 102 C19.33 102.99 19.66 103.98 20 105 C16.66204863 107.22530091 15.8714836 107.5202135 12 107 C9.46815357 105.7760331 7.18657523 104.53887144 4.8125 103.0625 C4.15048584 102.65644531 3.48847168 102.25039063 2.80639648 101.83203125 C-3.04963511 98.14381988 -8.14143034 93.93610003 -13 89 C-13.70640625 88.29230469 -14.4128125 87.58460938 -15.140625 86.85546875 C-30.86945372 70.19611772 -32.63397592 52.33139897 -32.25 30.5625 C-32.2298849 28.55926284 -32.21164307 26.55600596 -32.1953125 24.55273438 C-32.15175868 19.70132539 -32.08301394 14.8508876 -32 10 C-31.43145294 9.863591 -30.86290588 9.72718201 -30.27713013 9.5866394 C-27.66513838 8.95658439 -25.05524927 8.31819926 -22.4453125 7.6796875 C-21.55110596 7.46530029 -20.65689941 7.25091309 -19.7355957 7.0300293 C-13.52629717 5.50259306 -7.90468237 3.55830582 -2.1171875 0.8203125 C-1.41851562 0.54960937 -0.71984375 0.27890625 0 0 Z " fill="#E9EDE7" transform="translate(493,341)"/>
<path d="M0 0 C5.44127628 2.69378974 8.16897123 5.49127517 10.4375 11.11328125 C10.4375 13.09328125 10.4375 15.07328125 10.4375 17.11328125 C-1.7725 17.11328125 -13.9825 17.11328125 -26.5625 17.11328125 C-25.59046039 10.309004 -24.95342784 7.15232035 -19.90625 2.62890625 C-13.76550665 -1.85081636 -7.1648676 -2.47930632 0 0 Z " fill="#CCCFCF" transform="translate(496.5625,673.88671875)"/>
<path d="M0 0 C0.99 0 1.98 0 3 0 C4.32 0 5.64 0 7 0 C7.14601614 3.54122827 7.2343056 7.08167644 7.3125 10.625 C7.35439453 11.62402344 7.39628906 12.62304688 7.43945312 13.65234375 C7.57771761 22.00351854 7.57771761 22.00351854 4.83203125 25.6796875 C1.65041278 28.28642043 0.41701144 28.72270036 -3.625 28.5 C-4.56601562 28.4690625 -5.50703125 28.438125 -6.4765625 28.40625 C-9 28 -9 28 -12 26 C-12 25.01 -12 24.02 -12 23 C-11.505 23.165 -11.01 23.33 -10.5 23.5 C-6.90190467 24.21961907 -3.67460767 24.1778036 0 24 C2.35953094 21.64046906 2.49141413 20.22104383 3 17 C2.505 17.33 2.01 17.66 1.5 18 C-2.03888464 19.41555386 -5.29455218 19.82180229 -9 19 C-12.09459236 16.42117303 -13.55423234 14.87441649 -14.4765625 10.99609375 C-14.74603039 7.25899963 -14.07962602 5.1232919 -12.0625 2 C-7.90567227 -0.71466301 -4.80846738 -0.40520793 0 0 Z " fill="#1390A9" transform="translate(336,774)"/>
<path d="M0 0 C3.12291165 1.68012647 5.39164837 3.78329674 7 7 C7.37712577 11.99691647 7.09290612 14.99067725 4 19 C-0.44400266 21.96266844 -4.78901077 21.76945894 -10 21 C-12.89683868 18.7984026 -14.39297231 17.21405538 -16 14 C-16.37712577 9.00308353 -16.09290612 6.00932275 -13 2 C-8.7581081 -0.82792793 -4.98126257 -0.78122286 0 0 Z " fill="#0AA3C3" transform="translate(608,627)"/>
<path d="M0 0 C2.56231382 0.07919879 3.85022116 0.19671154 6.125 1.4375 C7.57845006 4.34440012 6.95283178 6.2599339 6.0625 9.3125 C4.5 11.1875 4.5 11.1875 3.0625 12.3125 C4.21423355 14.78050047 5.11033565 16.36033565 7.0625 18.3125 C7.7225 17.3225 8.3825 16.3325 9.0625 15.3125 C10.0525 15.3125 11.0425 15.3125 12.0625 15.3125 C11.753125 16.92125 11.753125 16.92125 11.4375 18.5625 C11.0748809 22.18869096 11.07887931 23.39541076 13.0625 26.3125 C12.0725 26.6425 11.0825 26.9725 10.0625 27.3125 C9.7325 26.6525 9.4025 25.9925 9.0625 25.3125 C6.88284689 25.77956852 5.13662835 26.27049393 3.1875 27.375 C0.21896155 28.68464931 -1.72258886 28.77177302 -4.9375 28.3125 C-7.875 26.25 -7.875 26.25 -9.9375 23.3125 C-10.01133065 19.10415269 -9.60552141 17.10197985 -6.875 13.875 C-5.9159375 13.1015625 -5.9159375 13.1015625 -4.9375 12.3125 C-5.4634375 11.2296875 -5.4634375 11.2296875 -6 10.125 C-7.05538755 6.95883734 -6.95614664 5.45332715 -5.9375 2.3125 C-3.9375 0.3125 -3.9375 0.3125 0 0 Z " fill="#0B8CAA" transform="translate(535.9375,766.6875)"/>
<path d="M0 0 C7.59 0 15.18 0 23 0 C23 3.63 23 7.26 23 11 C19.37 11 15.74 11 12 11 C12 14.63 12 18.26 12 22 C8.04 22 4.08 22 0 22 C0 14.74 0 7.48 0 0 Z " fill="#21A7C3" transform="translate(673,326)"/>
<path d="M0 0 C1.32 0 2.64 0 4 0 C7.96 8.58 11.92 17.16 16 26 C14.68 26.33 13.36 26.66 12 27 C11.34 25.02 10.68 23.04 10 21 C4.72 21.33 -0.56 21.66 -6 22 C-6.99 24.475 -6.99 24.475 -8 27 C-9.32 27 -10.64 27 -12 27 C-10.28378605 21.34493435 -7.87448941 16.05811648 -5.4375 10.6875 C-5.02564453 9.76904297 -4.61378906 8.85058594 -4.18945312 7.90429688 C-1.13046454 1.13046454 -1.13046454 1.13046454 0 0 Z " fill="#339EB6" transform="translate(573,767)"/>
<path d="M0 0 C3.96 0 7.92 0 12 0 C12 3.63 12 7.26 12 11 C15.3 11 18.6 11 22 11 C22 16 22 16 20.9375 17.8125 C18.00731249 19.60842137 15.3527047 19.18977574 12 19 C12 21.97 12 24.94 12 28 C11.67 28 11.34 28 11 28 C11 24.7 11 21.4 11 18 C7.37 18 3.74 18 0 18 C0 12.06 0 6.12 0 0 Z " fill="#BBC7C9" transform="translate(709,296)"/>
<path d="M0 0 C0.86367188 -0.03738281 1.72734375 -0.07476563 2.6171875 -0.11328125 C5.125 0.3125 5.125 0.3125 7.4296875 1.81640625 C9.80522039 5.31402265 9.56172772 8.49758117 9.375 12.5625 C9.35695313 13.30757812 9.33890625 14.05265625 9.3203125 14.8203125 C9.27335649 16.65159701 9.20161652 18.48221649 9.125 20.3125 C8.17625 20.291875 7.2275 20.27125 6.25 20.25 C3.21833717 20.08698174 3.21833717 20.08698174 1.125 21.3125 C-2.4966958 21.70616259 -4.23849317 21.76475485 -7.25 19.625 C-8.875 17.3125 -8.875 17.3125 -9.3125 14.75 C-8.79917579 11.89005084 -8.18580191 11.02420512 -5.875 9.3125 C-3.12421116 8.39557039 -1.51551087 8.20363917 1.3125 8.25 C3.1996875 8.2809375 3.1996875 8.2809375 5.125 8.3125 C4.465 6.9925 3.805 5.6725 3.125 4.3125 C-0.505 4.3125 -4.135 4.3125 -7.875 4.3125 C-7.545 3.3225 -7.215 2.3325 -6.875 1.3125 C-4.44538821 0.0976941 -2.71115884 0.07642733 0 0 Z " fill="#389EB5" transform="translate(382.875,773.6875)"/>
<path d="M0 0 C16.32921437 -0.62804671 16.32921437 -0.62804671 22 4 C25.61489169 7.89296028 25.55884469 11.17126643 25.421875 16.30078125 C24.75447566 20.5709011 23.21291454 22.15218938 20 25 C16.21004892 27.61899921 12.16915192 27.22571887 7.75 27.125 C5.1925 27.08375 2.635 27.0425 0 27 C0 18.09 0 9.18 0 0 Z M3 3 C3 9.93 3 16.86 3 24 C11.22865725 24.80924762 11.22865725 24.80924762 18.75 22.125 C21.49047674 18.31878231 21.80294939 15.98632156 21.53515625 11.37890625 C20.72633379 7.78348377 18.90389542 6.14335138 16 4 C12.14854957 2.07427479 7.19956748 2.95116782 3 3 Z " fill="#0F86A5" transform="translate(283,767)"/>
<path d="M0 0 C2.57970292 1.76319145 3.35953095 3.1953271 5 6 C5 7.65 5 9.3 5 11 C-0.28 11 -5.56 11 -11 11 C-10.01 12.65 -9.02 14.3 -8 16 C-5.26622386 16.60393692 -5.26622386 16.60393692 -2.3125 16.3125 C-0.82169922 16.24482422 -0.82169922 16.24482422 0.69921875 16.17578125 C1.45847656 16.11777344 2.21773437 16.05976562 3 16 C3 16.99 3 17.98 3 19 C-0.71453232 20.85726616 -4.95579425 20.58501089 -9 20 C-11.82424288 17.80977082 -13.41508603 16.16982793 -15 13 C-15.39447548 8.81855989 -15.45035186 6.69053952 -13.125 3.125 C-9.3014947 -0.6985053 -5.21240451 -0.95261186 0 0 Z " fill="#1297B5" transform="translate(732,774)"/>
<path d="M0 0 C0 16.83 0 33.66 0 51 C-1.485 51.495 -1.485 51.495 -3 52 C-6.42749751 37.83301031 -6.80831548 23.65192607 -5.1875 9.1875 C-5.11748779 8.49962402 -5.04747559 7.81174805 -4.9753418 7.10302734 C-4.73046875 5.16796875 -4.73046875 5.16796875 -4 2 C-1 0 -1 0 0 0 Z " fill="#E8E7E5" transform="translate(387,379)"/>
<path d="M0 0 C1.31291016 -0.03867187 1.31291016 -0.03867187 2.65234375 -0.078125 C5.58113235 0.32060797 6.25622034 0.96490468 8.0625 3.25 C8.40307617 5.15112305 8.40307617 5.15112305 8.35546875 7.26171875 C8.34580078 8.01904297 8.33613281 8.77636719 8.32617188 9.55664062 C8.30103516 10.34232422 8.27589844 11.12800781 8.25 11.9375 C8.22969727 13.13342773 8.22969727 13.13342773 8.20898438 14.35351562 C8.17367089 16.31929967 8.11986447 18.28473582 8.0625 20.25 C5.79225032 20.33097324 3.52117925 20.38917704 1.25 20.4375 C-0.64685547 20.48970703 -0.64685547 20.48970703 -2.58203125 20.54296875 C-5.9375 20.25 -5.9375 20.25 -7.85546875 18.890625 C-9.4578624 16.46100285 -9.4929026 15.09643831 -8.9375 12.25 C-6.71561679 9.59807488 -5.08599875 8.37099569 -1.6015625 8.00390625 C0.63433586 8.0003796 2.83393936 8.07521093 5.0625 8.25 C4.4025 6.93 3.7425 5.61 3.0625 4.25 C-0.2375 4.25 -3.5375 4.25 -6.9375 4.25 C-6.9375 3.26 -6.9375 2.27 -6.9375 1.25 C-4.48367866 0.02308933 -2.73765897 0.04824069 0 0 Z " fill="#189DBA" transform="translate(677.9375,773.75)"/>
<path d="M0 0 C1.32 0 2.64 0 4 0 C4.06058594 1.07121094 4.12117187 2.14242187 4.18359375 3.24609375 C4.26798537 4.64324391 4.35263406 6.04037857 4.4375 7.4375 C4.47681641 8.14455078 4.51613281 8.85160156 4.55664062 9.58007812 C4.47624438 13.08690419 4.47624438 13.08690419 6 16 C9.45812169 16.33338596 9.45812169 16.33338596 13 16 C15.34770643 12.47844036 15.37669614 10.49228157 15.625 6.3125 C15.69976563 5.13300781 15.77453125 3.95351563 15.8515625 2.73828125 C15.90054688 1.83464844 15.94953125 0.93101562 16 0 C16.99 0 17.98 0 19 0 C19 6.6 19 13.2 19 20 C18.01 20 17.02 20 16 20 C16 19.34 16 18.68 16 18 C15.29875 18.495 14.5975 18.99 13.875 19.5 C10.52678113 21.2468968 8.7241837 21.55466566 5 21 C2.69724444 19.1329009 1.32176129 17.64352259 0 15 C-0.0716735 12.44842345 -0.09308442 9.92527029 -0.0625 7.375 C-0.05798828 6.66859375 -0.05347656 5.9621875 -0.04882812 5.234375 C-0.03703875 3.48954725 -0.01910324 1.744763 0 0 Z " fill="#2E9BB3" transform="translate(630,774)"/>
<path d="M0 0 C7.26 0 14.52 0 22 0 C22 0.99 22 1.98 22 3 C19.03 3 16.06 3 13 3 C13 11.25 13 19.5 13 28 C11.68 27.67 10.36 27.34 9 27 C9 19.41 9 11.82 9 4 C6.03 4 3.06 4 0 4 C0 2.68 0 1.36 0 0 Z " fill="#2693B0" transform="translate(416,767)"/>
<path d="M0 0 C0.99386719 0.02707031 1.98773438 0.05414062 3.01171875 0.08203125 C4.15060547 0.13423828 4.15060547 0.13423828 5.3125 0.1875 C5.3125 1.5075 5.3125 2.8275 5.3125 4.1875 C2.0125 3.8575 -1.2875 3.5275 -4.6875 3.1875 C-4.3575 4.5075 -4.0275 5.8275 -3.6875 7.1875 C-1.63918861 8.28955469 -1.63918861 8.28955469 0.8125 8.875 C5.25951987 10.13451987 5.25951987 10.13451987 6.3125 11.1875 C6.6875 14.5625 6.6875 14.5625 6.3125 18.1875 C3.49757016 20.83182803 1.58192305 21.15913968 -2.25 21.5625 C-5.80154277 21.17505897 -7.23785545 20.73513034 -9.6875 18.1875 C-9.6875 17.5275 -9.6875 16.8675 -9.6875 16.1875 C-5.7275 16.1875 -1.7675 16.1875 2.3125 16.1875 C2.3125 15.1975 2.3125 14.2075 2.3125 13.1875 C1.68601562 12.99414062 1.05953125 12.80078125 0.4140625 12.6015625 C-0.40320313 12.34117187 -1.22046875 12.08078125 -2.0625 11.8125 C-3.28066406 11.42964844 -3.28066406 11.42964844 -4.5234375 11.0390625 C-6.6875 10.1875 -6.6875 10.1875 -8.6875 8.1875 C-9.04208018 5.42177458 -9.15734593 3.85285229 -7.5234375 1.5390625 C-4.9589625 -0.34882761 -3.14475881 -0.11099149 0 0 Z " fill="#158DA7" transform="translate(488.6875,773.8125)"/>
<path d="M0 0 C0.99 0 1.98 0 3 0 C3.06058594 0.98742187 3.12117188 1.97484375 3.18359375 2.9921875 C3.26738281 4.27351562 3.35117187 5.55484375 3.4375 6.875 C3.51871094 8.15117188 3.59992188 9.42734375 3.68359375 10.7421875 C3.79206027 13.88300152 3.79206027 13.88300152 5 16 C8.41642759 16.25015873 8.41642759 16.25015873 12 16 C14.34770643 12.47844036 14.37669614 10.49228157 14.625 6.3125 C14.69976562 5.13300781 14.77453125 3.95351563 14.8515625 2.73828125 C14.90054687 1.83464844 14.94953125 0.93101562 15 0 C15.99 0 16.98 0 18 0 C18 6.93 18 13.86 18 21 C17.01 21 16.02 21 15 21 C14.67 20.34 14.34 19.68 14 19 C13.484375 19.350625 12.96875 19.70125 12.4375 20.0625 C8.94173294 21.40702579 6.58985565 20.91378144 3 20 C0.166591 17.43953407 -0.00190642 15.97468278 -0.29296875 12.109375 C-0.27314945 10.65595991 -0.23754845 9.20268833 -0.1875 7.75 C-0.17396484 7.00492188 -0.16042969 6.25984375 -0.14648438 5.4921875 C-0.11127204 3.66114584 -0.05746851 1.83047831 0 0 Z " fill="#178FA8" transform="translate(456,774)"/>
<path d="M0 0 C5.80892856 2.82221231 11.46972076 5.31619149 17.6875 7.125 C17.6875 8.445 17.6875 9.765 17.6875 11.125 C9.71875963 9.47273418 2.79179931 6.4689499 -4.38452148 2.73046875 C-8.48339313 0.63574355 -8.48339313 0.63574355 -12.98828125 0.26171875 C-13.75527344 0.54660156 -14.52226562 0.83148438 -15.3125 1.125 C-16.19550781 1.44597656 -17.07851563 1.76695312 -17.98828125 2.09765625 C-18.85839844 2.45730469 -19.72851562 2.81695312 -20.625 3.1875 C-21.50800781 3.54972656 -22.39101563 3.91195313 -23.30078125 4.28515625 C-23.96464844 4.56230469 -24.62851562 4.83945312 -25.3125 5.125 C-25.10546875 2.8046875 -25.10546875 2.8046875 -24.3125 0.125 C-22.23828125 -1.4921875 -22.23828125 -1.4921875 -19.625 -2.75 C-18.77550781 -3.18054688 -17.92601562 -3.61109375 -17.05078125 -4.0546875 C-10.74875336 -5.94259885 -5.5386366 -2.75976999 0 0 Z " fill="#E2E5E1" transform="translate(519.3125,339.875)"/>
<path d="M0 0 C0.99386719 0.02707031 1.98773437 0.05414062 3.01171875 0.08203125 C4.15060547 0.13423828 4.15060547 0.13423828 5.3125 0.1875 C5.3125 1.5075 5.3125 2.8275 5.3125 4.1875 C2.0125 3.8575 -1.2875 3.5275 -4.6875 3.1875 C-4.3575 4.5075 -4.0275 5.8275 -3.6875 7.1875 C-1.63918861 8.28955469 -1.63918861 8.28955469 0.8125 8.875 C5.25951987 10.13451987 5.25951987 10.13451987 6.3125 11.1875 C6.5625 14.625 6.5625 14.625 6.3125 18.1875 C3.09419935 20.33303377 2.04463493 20.48333868 -1.6875 20.5 C-2.986875 20.52513672 -2.986875 20.52513672 -4.3125 20.55078125 C-7.0991129 20.12453947 -7.95358617 19.34918863 -9.6875 17.1875 C-5.7061217 15.8603739 -1.83704773 16.11834087 2.3125 16.1875 C2.6425 15.1975 2.9725 14.2075 3.3125 13.1875 C-0.3175 12.1975 -3.9475 11.2075 -7.6875 10.1875 C-9.03131218 3.7127686 -9.03131218 3.7127686 -7.5625 1.46875 C-4.96322632 -0.30742035 -3.11532026 -0.10995248 0 0 Z " fill="#1596B1" transform="translate(618.6875,773.8125)"/>
<path d="M0 0 C0.87785156 0.01546875 1.75570312 0.0309375 2.66015625 0.046875 C4.9375 0.25 4.9375 0.25 6.9375 1.25 C6.6075 2.24 6.2775 3.23 5.9375 4.25 C2.6375 4.25 -0.6625 4.25 -4.0625 4.25 C-4.3925 5.24 -4.7225 6.23 -5.0625 7.25 C-3.20625 7.683125 -3.20625 7.683125 -1.3125 8.125 C1.66198742 8.86334794 4.271356 9.69474933 6.9375 11.25 C7.125 14.625 7.125 14.625 6.9375 18.25 C3.51655758 20.53062828 2.25562778 20.46925007 -1.75 20.375 C-3.24080078 20.34792969 -3.24080078 20.34792969 -4.76171875 20.3203125 C-5.52097656 20.29710937 -6.28023437 20.27390625 -7.0625 20.25 C-7.3925 18.93 -7.7225 17.61 -8.0625 16.25 C-4.4325 16.25 -0.8025 16.25 2.9375 16.25 C3.2675 15.26 3.5975 14.27 3.9375 13.25 C3.01517578 13.08564453 3.01517578 13.08564453 2.07421875 12.91796875 C1.26597656 12.75941406 0.45773437 12.60085938 -0.375 12.4375 C-1.57576172 12.21126953 -1.57576172 12.21126953 -2.80078125 11.98046875 C-5.33823287 11.16094638 -6.43597026 10.34125253 -8.0625 8.25 C-8.48699455 5.42003634 -8.57407145 3.94533984 -6.85546875 1.609375 C-4.46611497 -0.2021612 -2.96694781 -0.08739169 0 0 Z " fill="#1A93AE" transform="translate(599.0625,773.75)"/>
<path d="M0 0 C2.50041894 0.08168338 3.83455801 0.19140582 6.0625 1.375 C7.66568593 4.48117275 7.49001128 6.89240979 7.0625 10.3125 C4.86053976 12.93791413 3.44276421 13.2570448 0.0625 13.75 C-2.9375 13.3125 -2.9375 13.3125 -5.375 11.75 C-6.9375 9.3125 -6.9375 9.3125 -6.8125 5.6875 C-5.56526038 0.87671861 -5.01226784 0.39779904 0 0 Z " fill="#C5C8CA" transform="translate(331.9375,776.6875)"/>
<path d="M0 0 C1.32 0.33 2.64 0.66 4 1 C4.66 0.67 5.32 0.34 6 0 C13.14136126 -0.57591623 13.14136126 -0.57591623 16.2421875 1.50390625 C18.6988057 4.9923041 18.43808385 8.15555929 18.25 12.25 C18.23195313 12.99507812 18.21390625 13.74015625 18.1953125 14.5078125 C18.14835649 16.33909701 18.07661652 18.16971649 18 20 C17.01 20 16.02 20 15 20 C14.67 14.72 14.34 9.44 14 4 C11.36 4 8.72 4 6 4 C3.14206684 6.85793316 3.59200059 9.14665584 3.375 13.125 C3.30023437 14.40632812 3.22546875 15.68765625 3.1484375 17.0078125 C3.09945312 17.99523437 3.05046875 18.98265625 3 20 C2.01 20 1.02 20 0 20 C0 13.4 0 6.8 0 0 Z " fill="#0F94B4" transform="translate(694,774)"/>
<path d="M0 0 C0.99 0 1.98 0 3 0 C3 1.65 3 3.3 3 5 C5.31 5 7.62 5 10 5 C10 5.99 10 6.98 10 8 C7.69 8 5.38 8 3 8 C3.33 12.29 3.66 16.58 4 21 C5.32 21.33 6.64 21.66 8 22 C8.99 22.33 9.98 22.66 11 23 C10.34 23.99 9.68 24.98 9 26 C6.0625 26.4375 6.0625 26.4375 3 26 C0.38313482 23.54744961 0.01337108 22.15760043 -0.29296875 18.546875 C-0.25816406 17.29390625 -0.22335937 16.0409375 -0.1875 14.75 C-0.16042969 13.48671875 -0.13335937 12.2234375 -0.10546875 10.921875 C-0.07066406 9.95765625 -0.03585937 8.9934375 0 8 C-0.99 8 -1.98 8 -3 8 C-3 7.01 -3 6.02 -3 5 C-2.01 5 -1.02 5 0 5 C0 3.35 0 1.7 0 0 Z " fill="#1593B0" transform="translate(501,769)"/>
<path d="M0 0 C0.33 0.66 0.66 1.32 1 2 C4.3 2 7.6 2 11 2 C11 4.64 11 7.28 11 10 C7.59575912 12.09491746 4.96585158 12.49573145 1 12 C-1.83171242 9.98799381 -2.84987863 8.87928233 -3.4375 5.4375 C-2.93493775 2.63751034 -2.19653565 1.73892405 0 0 Z " fill="#1A91AB" transform="translate(377,783)"/>
<path d="M0 0 C0.99 0 1.98 0 3 0 C3 1.65 3 3.3 3 5 C5.31 5 7.62 5 10 5 C9.67 5.99 9.34 6.98 9 8 C7.02 8 5.04 8 3 8 C3.33 12.29 3.66 16.58 4 21 C5.98 21.33 7.96 21.66 10 22 C10 22.99 10 23.98 10 25 C8.72125 25.061875 7.4425 25.12375 6.125 25.1875 C5.04605469 25.23970703 5.04605469 25.23970703 3.9453125 25.29296875 C3.30335938 25.19628906 2.66140625 25.09960938 2 25 C-0.49118953 21.2632157 -0.2065226 19.25548181 -0.125 14.8125 C-0.10695313 13.54019531 -0.08890625 12.26789062 -0.0703125 10.95703125 C-0.04710937 9.98121094 -0.02390625 9.00539063 0 8 C-0.99 8 -1.98 8 -3 8 C-3 7.01 -3 6.02 -3 5 C-2.01 5 -1.02 5 0 5 C0 3.35 0 1.7 0 0 Z " fill="#0D84A6" transform="translate(361,769)"/>
<path d="M0 0 C1.65 0 3.3 0 5 0 C4.67 1.32 4.34 2.64 4 4 C2.68 4 1.36 4 0 4 C0.33 6.97 0.66 9.94 1 13 C-2.63 13 -6.26 13 -10 13 C-10 9.7 -10 6.4 -10 3 C-6.7 3 -3.4 3 0 3 C0 2.01 0 1.02 0 0 Z " fill="#0399B7" transform="translate(742,294)"/>
<path d="M0 0 C3.63 0 7.26 0 11 0 C11 3.63 11 7.26 11 11 C7.37 11 3.74 11 0 11 C0 7.37 0 3.74 0 0 Z " fill="#C9C9CC" transform="translate(685,326)"/>
<path d="M0 0 C3.63 0 7.26 0 11 0 C11 3.63 11 7.26 11 11 C7.37 11 3.74 11 0 11 C0 7.37 0 3.74 0 0 Z " fill="#06A5BF" transform="translate(709,314)"/>
<path d="M0 0 C3.63 0 7.26 0 11 0 C11 3.63 11 7.26 11 11 C7.37 11 3.74 11 0 11 C0 7.37 0 3.74 0 0 Z " fill="#0AA7C4" transform="translate(709,296)"/>
<path d="M0 0 C3.63 0 7.26 0 11 0 C11 3.63 11 7.26 11 11 C7.37 11 3.74 11 0 11 C0 7.37 0 3.74 0 0 Z " fill="#10A7C0" transform="translate(769,265)"/>
<path d="M0 0 C0.33 0 0.66 0 1 0 C1 16.83 1 33.66 1 51 C-0.485 51.495 -0.485 51.495 -2 52 C-2.05058526 44.91588378 -2.08568494 37.83181388 -2.10986328 30.74755859 C-2.11993954 28.33608256 -2.13360081 25.92461878 -2.15087891 23.51318359 C-2.1750559 20.05302915 -2.18646669 16.5930358 -2.1953125 13.1328125 C-2.20563507 12.04944611 -2.21595764 10.96607971 -2.22659302 9.84988403 C-2.22674408 8.8489975 -2.22689514 7.84811096 -2.22705078 6.81689453 C-2.231492 5.93309113 -2.23593323 5.04928772 -2.24050903 4.13870239 C-2 2 -2 2 0 0 Z " fill="#F2F1F1" transform="translate(386,379)"/>
<path d="M0 0 C1.32 0 2.64 0 4 0 C4 9.57 4 19.14 4 29 C2.68 29.33 1.36 29.66 0 30 C0 20.1 0 10.2 0 0 Z " fill="#2C90AA" transform="translate(398,765)"/>
<path d="M0 0 C2.206875 -0.04125 4.41375 -0.0825 6.6875 -0.125 C8.54955078 -0.15980469 8.54955078 -0.15980469 10.44921875 -0.1953125 C13.81237857 -0.01032021 15.9985587 0.54232105 19 2 C18.67 3.32 18.34 4.64 18 6 C17.45859375 5.68289063 16.9171875 5.36578125 16.359375 5.0390625 C13.5842851 3.81692026 11.26791902 3.59056564 8.25 3.375 C6.77273438 3.26285156 6.77273438 3.26285156 5.265625 3.1484375 C4.51796875 3.09945312 3.7703125 3.05046875 3 3 C3.01160156 4.14339844 3.02320313 5.28679688 3.03515625 6.46484375 C3.04453288 7.95572754 3.05363321 9.44661309 3.0625 10.9375 C3.07087891 11.69224609 3.07925781 12.44699219 3.08789062 13.22460938 C3.09652441 15.14994313 3.05224333 17.07535581 3 19 C2.67 19.33 2.34 19.66 2 20 C1.63239269 22.32817964 1.29758419 24.6618385 1 27 C0.67 27 0.34 27 0 27 C0 18.09 0 9.18 0 0 Z " fill="#0F91AF" transform="translate(283,767)"/>
<path d="M0 0 C2.0625 1.1875 2.0625 1.1875 3 3 C2.6875 5.6875 2.6875 5.6875 2 8 C-2.41225737 9.47075246 -5.48281619 10.36884358 -10 9 C-11.31343284 3.62686567 -11.31343284 3.62686567 -10.0625 1.125 C-6.80031651 -0.65437281 -3.62727568 -0.5505013 0 0 Z " fill="#1994B1" transform="translate(540,767)"/>
<path d="M0 0 C3.63 0 7.26 0 11 0 C11 3.3 11 6.6 11 10 C7.37 10 3.74 10 0 10 C0 6.7 0 3.4 0 0 Z " fill="#C7C5C6" transform="translate(697,315)"/>
<path d="M0 0 C3.3 0 6.6 0 10 0 C10 3.63 10 7.26 10 11 C6.7 11 3.4 11 0 11 C0 7.37 0 3.74 0 0 Z " fill="#02A2C3" transform="translate(686,314)"/>
<path d="M0 0 C3.3 0 6.6 0 10 0 C10 3.63 10 7.26 10 11 C6.7 11 3.4 11 0 11 C0 7.37 0 3.74 0 0 Z " fill="#05A8C6" transform="translate(750,283)"/>
<path d="M0 0 C3.3 0 6.6 0 10 0 C10 3.63 10 7.26 10 11 C6.7 11 3.4 11 0 11 C0 7.37 0 3.74 0 0 Z " fill="#0BA6C2" transform="translate(721,283)"/>
<path d="M0 0 C3.3 0 6.6 0 10 0 C10 3.3 10 6.6 10 10 C6.7 10 3.4 10 0 10 C0 6.7 0 3.4 0 0 Z " fill="#CDCCCD" transform="translate(674,338)"/>
<path d="M0 0 C3.3 0 6.6 0 10 0 C10 3.3 10 6.6 10 10 C6.7 10 3.4 10 0 10 C0 6.7 0 3.4 0 0 Z " fill="#0AA5C2" transform="translate(781,252)"/>
<path d="M0 0 C2.475 0.495 2.475 0.495 5 1 C8.22111592 0.61666338 8.22111592 0.61666338 11 0 C9.73958325 3.78125025 8.31129455 4.01322327 5 6 C3.99740493 9.00778521 3.69685358 11.53820647 3.4375 14.6875 C3.31181641 16.17830078 3.31181641 16.17830078 3.18359375 17.69921875 C3.12300781 18.45847656 3.06242188 19.21773437 3 20 C2.01 20 1.02 20 0 20 C0 13.4 0 6.8 0 0 Z " fill="#1B95B1" transform="translate(656,774)"/>
<path d="M0 0 C2.475 0.495 2.475 0.495 5 1 C5.33 0.67 5.66 0.34 6 0 C7.66617115 -0.04063832 9.33388095 -0.042721 11 0 C9.74797133 3.75608601 8.36936427 4.14684965 5 6 C3.12175109 7.87824891 3.60897603 11.03935276 3.4375 13.5625 C3.31181641 15.35880859 3.31181641 15.35880859 3.18359375 17.19140625 C3.12300781 18.11824219 3.06242187 19.04507813 3 20 C2.01 20 1.02 20 0 20 C0 13.4 0 6.8 0 0 Z " fill="#0683A4" transform="translate(441,774)"/>
<path d="M0 0 C0.99 0 1.98 0 3 0 C3.11654436 3.5622231 3.1873639 7.12395342 3.25 10.6875 C3.30027344 12.19860352 3.30027344 12.19860352 3.3515625 13.74023438 C3.45051389 21.23580186 3.45051389 21.23580186 1.109375 25.20703125 C-1 27 -1 27 -3 27 C-2.67 26.484375 -2.34 25.96875 -2 25.4375 C-0.65707286 22.1641151 -0.74047344 19.50360855 -1 16 C-1.66 15.34 -2.32 14.68 -3 14 C-2.34 13.01 -1.68 12.02 -1 11 C-0.54227937 8.26127045 -0.54227937 8.26127045 -0.375 5.3125 C-0.30023438 4.31863281 -0.22546875 3.32476563 -0.1484375 2.30078125 C-0.09945313 1.54152344 -0.05046875 0.78226563 0 0 Z " fill="#0E91AD" transform="translate(340,774)"/>
<path d="M0 0 C2.31 1.98 4.62 3.96 7 6 C6.34 7.32 5.68 8.64 5 10 C-1.0546875 10.1953125 -1.0546875 10.1953125 -3 10 C-3.66 9.34 -4.32 8.68 -5 8 C-4.875 5.5625 -4.875 5.5625 -4 3 C-1.9375 1.1875 -1.9375 1.1875 0 0 Z " fill="#C6CACA" transform="translate(534,781)"/>
<path d="M0 0 C0.99 0 1.98 0 3 0 C2.690625 1.60875 2.690625 1.60875 2.375 3.25 C2.0123809 6.87619096 2.01637931 8.08291076 4 11 C3.01 11.33 2.02 11.66 1 12 C0.67 11.34 0.34 10.68 0 10 C-2.17965311 10.46706852 -3.92587165 10.95799393 -5.875 12.0625 C-8.65689456 13.28980643 -10.99463406 13.13660754 -14 13 C-14 12.67 -14 12.34 -14 12 C-12.35 11.67 -10.7 11.34 -9 11 C-9.99 10.34 -10.98 9.68 -12 9 C-9.69 8.34 -7.38 7.68 -5 7 C-4.896875 6.360625 -4.79375 5.72125 -4.6875 5.0625 C-4.460625 4.381875 -4.23375 3.70125 -4 3 C-3.01 2.67 -2.02 2.34 -1 2 C-0.67 1.34 -0.34 0.68 0 0 Z " fill="#108FAE" transform="translate(545,782)"/>
<path d="M0 0 C0.99 0 1.98 0 3 0 C3 6.6 3 13.2 3 20 C2.01 20 1.02 20 0 20 C0 19.34 0 18.68 0 18 C-1.65 18.66 -3.3 19.32 -5 20 C-5 19.01 -5 18.02 -5 17 C-4.35546875 16.41734375 -3.7109375 15.8346875 -3.046875 15.234375 C-0.31237719 12.24938884 -0.40964788 10.24119699 -0.25 6.25 C-0.19328125 5.07953125 -0.1365625 3.9090625 -0.078125 2.703125 C-0.05234375 1.81109375 -0.0265625 0.9190625 0 0 Z " fill="#0C97B5" transform="translate(646,774)"/>
<path d="M0 0 C3.86248624 3.34316036 4.54212374 7.20983513 6 12 C2.37 12 -1.26 12 -5 12 C-1.125 2.25 -1.125 2.25 0 0 Z " fill="#C7CDCF" transform="translate(574,772)"/>
<path d="M0 0 C0.33 0 0.66 0 1 0 C1 4.62 1 9.24 1 14 C-9.7421875 14.1953125 -9.7421875 14.1953125 -13 14 C-15 12 -15 12 -15.125 9.375 C-15.08375 8.59125 -15.0425 7.8075 -15 7 C-14.34 6.67 -13.68 6.34 -13 6 C-12.67 7.32 -12.34 8.64 -12 10 C-9.25038489 10.94607807 -9.25038489 10.94607807 -6 11 C-2.54662219 8.46752294 -1.21214279 6.86488983 -0.1875 2.6875 C-0.0946875 1.3571875 -0.0946875 1.3571875 0 0 Z " fill="#0C95B3" transform="translate(685,780)"/>
<path d="M0 0 C0.87785156 0.01546875 1.75570312 0.0309375 2.66015625 0.046875 C4.9375 0.25 4.9375 0.25 6.9375 1.25 C6.6075 2.24 6.2775 3.23 5.9375 4.25 C2.6375 4.25 -0.6625 4.25 -4.0625 4.25 C-4.3925 5.24 -4.7225 6.23 -5.0625 7.25 C-3.7425 7.58 -2.4225 7.91 -1.0625 8.25 C-1.3925 9.24 -1.7225 10.23 -2.0625 11.25 C-4.92974686 10.67655063 -5.9239515 10.3885485 -8.0625 8.25 C-8.41979435 5.46310407 -8.5462333 3.91120688 -6.859375 1.60546875 C-4.46691359 -0.19927932 -2.96576902 -0.08735697 0 0 Z " fill="#0F94B3" transform="translate(599.0625,773.75)"/>
<path d="M0 0 C3.3 0 6.6 0 10 0 C10 1.65 10 3.3 10 5 C8 7 8 7 6.0546875 7.1953125 C4.03645833 7.13020833 2.01822917 7.06510417 0 7 C0 4.69 0 2.38 0 0 Z " fill="#10AAC3" transform="translate(721,307)"/>
<path d="M0 0 C1.34771484 -0.00386719 1.34771484 -0.00386719 2.72265625 -0.0078125 C4.9375 0.125 4.9375 0.125 5.9375 1.125 C6.00976502 2.97787502 6.0213122 4.83333878 6 6.6875 C5.99097656 7.69941406 5.98195313 8.71132813 5.97265625 9.75390625 C5.96105469 10.53636719 5.94945312 11.31882812 5.9375 12.125 C4.9475 12.125 3.9575 12.125 2.9375 12.125 C2.01857884 8.44931536 1.97845144 6.96119425 2.9375 3.125 C-0.3625 3.125 -3.6625 3.125 -7.0625 3.125 C-7.0625 2.465 -7.0625 1.805 -7.0625 1.125 C-4.56110398 -0.12569801 -2.78857309 -0.00802467 0 0 Z " fill="#138FAE" transform="translate(385.0625,781.875)"/>
<path d="M0 0 C3.30616284 3.80208727 7 9.83581485 7 15 C4.11584117 16.44207941 1.58278472 16.09394887 -1.625 16.0625 C-2.81351563 16.05347656 -4.00203125 16.04445313 -5.2265625 16.03515625 C-6.14179687 16.02355469 -7.05703125 16.01195312 -8 16 C-8 15.67 -8 15.34 -8 15 C-4.37 15 -0.74 15 3 15 C1.02 10.71 -0.96 6.42 -3 2 C-2.01 1.34 -1.02 0.68 0 0 Z " fill="#2D9CB6" transform="translate(577,769)"/>
<path d="M0 0 C2.64 0 5.28 0 8 0 C8 2.64 8 5.28 8 8 C5.36 8 2.72 8 0 8 C0 5.36 0 2.72 0 0 Z " fill="#03A3BE" transform="translate(770,324)"/>
<path d="M0 0 C5.28 0 10.56 0 16 0 C15.34 0.66 14.68 1.32 14 2 C14.33 2.66 14.66 3.32 15 4 C10.96961634 5.34346122 7.20161608 5.26676927 3 5 C1 3.625 1 3.625 0 2 C0 1.34 0 0.68 0 0 Z " fill="#DFDCDC" transform="translate(721,786)"/>
<path d="M0 0 C1.23556641 0.01740234 1.23556641 0.01740234 2.49609375 0.03515625 C3.32238281 0.04417969 4.14867187 0.05320312 5 0.0625 C5.63808594 0.07410156 6.27617187 0.08570313 6.93359375 0.09765625 C6.62109375 2.47265625 6.62109375 2.47265625 5.93359375 5.09765625 C2.71145618 7.24574796 1.65583974 7.39151778 -2.06640625 7.09765625 C-3.06640625 6.09765625 -3.06640625 6.09765625 -3.19140625 3.59765625 C-3.01865637 0.14265862 -3.01865637 0.14265862 0 0 Z " fill="#C0C1C1" transform="translate(381.06640625,784.90234375)"/>
<path d="M0 0 C1.23556641 0.01740234 1.23556641 0.01740234 2.49609375 0.03515625 C3.32238281 0.04417969 4.14867187 0.05320312 5 0.0625 C5.63808594 0.07410156 6.27617188 0.08570313 6.93359375 0.09765625 C6.62109375 2.47265625 6.62109375 2.47265625 5.93359375 5.09765625 C2.93359375 7.09765625 2.93359375 7.09765625 -0.25390625 6.72265625 C-1.18203125 6.51640625 -2.11015625 6.31015625 -3.06640625 6.09765625 C-3.10912725 4.4315372 -3.10704457 2.7638274 -3.06640625 1.09765625 C-2.06640625 0.09765625 -2.06640625 0.09765625 0 0 Z " fill="#D2D4D5" transform="translate(676.06640625,784.90234375)"/>
<path d="M0 0 C0.99 0 1.98 0 3 0 C3 6.6 3 13.2 3 20 C2.01 20 1.02 20 0 20 C0 13.4 0 6.8 0 0 Z " fill="#0D8CAC" transform="translate(314,774)"/>
<path d="M0 0 C0.99 0 1.98 0 3 0 C3 6.6 3 13.2 3 20 C2.01 20 1.02 20 0 20 C0 13.4 0 6.8 0 0 Z " fill="#078CA8" transform="translate(350,774)"/>
<path d="M0 0 C3.3 0 6.6 0 10 0 C10 1.98 10 3.96 10 6 C6.7 6 3.4 6 0 6 C0 4.02 0 2.04 0 0 Z " fill="#03A3C3" transform="translate(698,308)"/>
<path d="M0 0 C1.16796875 2.06640625 1.16796875 2.06640625 2.1875 4.5625 C2.53167969 5.38878906 2.87585938 6.21507812 3.23046875 7.06640625 C3.48441406 7.70449219 3.73835937 8.34257813 4 9 C1.625 8.8125 1.625 8.8125 -1 8 C-1.66 6.35 -2.32 4.7 -3 3 C-7.29 2.67 -11.58 2.34 -16 2 C-15.67 1.34 -15.34 0.68 -15 0 C-12.3828125 -0.44921875 -12.3828125 -0.44921875 -9.125 -0.6875 C-8.05507813 -0.77386719 -6.98515625 -0.86023438 -5.8828125 -0.94921875 C-3 -1 -3 -1 0 0 Z " fill="#0694B2" transform="translate(585,785)"/>
<path d="M0 0 C3.16115776 1.36983503 3.9927092 1.9890638 6 5 C6.1953125 7.69921875 6.1953125 7.69921875 6.125 10.6875 C6.10695313 11.68136719 6.08890625 12.67523437 6.0703125 13.69921875 C6.03550781 14.83810547 6.03550781 14.83810547 6 16 C4.66666667 16 3.33333333 16 2 16 C1.93941406 15.34773437 1.87882812 14.69546875 1.81640625 14.0234375 C1.36480009 9.31283783 0.85804961 4.65798362 0 0 Z " fill="#2B8EA9" transform="translate(302,770)"/>
<path d="M0 0 C0.33 0.99 0.66 1.98 1 3 C1.66 3 2.32 3 3 3 C3 8.94 3 14.88 3 21 C-0.74571372 17.25428628 -1.12936941 12.34057852 -1.1875 7.25 C-1.16290096 4.43586965 -0.90816238 2.72448715 0 0 Z " fill="#B9BEC1" transform="translate(298,688)"/>
<path d="M0 0 C0.66 0 1.32 0 2 0 C2.16404778 4.26524223 2.26748556 7.31533597 0 11 C0 11.33 0 11.66 0 12 C-1.77049689 12.05410687 -3.54146849 12.09284119 -5.3125 12.125 C-6.79169922 12.15980469 -6.79169922 12.15980469 -8.30078125 12.1953125 C-11 12 -11 12 -14 10 C-14 9.01 -14 8.02 -14 7 C-13.505 7.165 -13.01 7.33 -12.5 7.5 C-8.90190467 8.21961907 -5.67460767 8.1778036 -2 8 C0.34973818 6.10244856 0.34973818 6.10244856 0.125 2.875 C0.08375 1.92625 0.0425 0.9775 0 0 Z " fill="#2B97AA" transform="translate(338,790)"/>
<path d="M0 0 C1.32 0 2.64 0 4 0 C3.67 1.32 3.34 2.64 3 4 C2.34 4 1.68 4 1 4 C0.896875 4.680625 0.79375 5.36125 0.6875 6.0625 C-0.14725019 9.62915989 -1.49472754 12.66222194 -3 16 C-3.99 15.67 -4.98 15.34 -6 15 C-4.36041242 9.76727367 -2.61047965 4.84803364 0 0 Z " fill="#158FAB" transform="translate(573,767)"/>
<path d="M0 0 C1.91015625 0.23046875 1.91015625 0.23046875 3.91015625 2.23046875 C3.91015625 3.22046875 3.91015625 4.21046875 3.91015625 5.23046875 C-0.04984375 5.23046875 -4.00984375 5.23046875 -8.08984375 5.23046875 C-6.61379594 -0.67372249 -5.84549858 0.11669779 0 0 Z " fill="#E1DFE0" transform="translate(729.08984375,776.76953125)"/>
<path d="M0 0 C0.33 0 0.66 0 1 0 C2.10285204 5.23854718 2.56629169 10.66342068 2 16 C1.34 16.66 0.68 17.32 0 18 C-0.46486718 21.12196336 -0.46486718 21.12196336 -0.625 24.625 C-0.69976562 25.81351562 -0.77453125 27.00203125 -0.8515625 28.2265625 C-0.90054687 29.14179688 -0.94953125 30.05703125 -1 31 C-1.33 31 -1.66 31 -2 31 C-2.27256607 20.46077862 -1.53370124 10.42095218 0 0 Z " fill="#C0C8CC" transform="translate(383,381)"/>
<path d="M0 0 C1.32 0.66 2.64 1.32 4 2 C3.09522263 3.46573934 2.17565859 4.92235756 1.25 6.375 C0.73953125 7.18710937 0.2290625 7.99921875 -0.296875 8.8359375 C-2.09860587 11.12529278 -3.28167168 12.02611072 -6 13 C-6.99 13 -7.98 13 -9 13 C-8.43410156 12.22914063 -7.86820313 11.45828125 -7.28515625 10.6640625 C-6.55167969 9.66117187 -5.81820312 8.65828125 -5.0625 7.625 C-4.33160156 6.62726563 -3.60070312 5.62953125 -2.84765625 4.6015625 C-1.0220431 2.17182891 -1.0220431 2.17182891 0 0 Z " fill="#DCE1DD" transform="translate(544,411)"/>
<path d="M0 0 C0.33 0 0.66 0 1 0 C1.33 3.96 1.66 7.92 2 12 C5.96 12.99 5.96 12.99 10 14 C10 14.99 10 15.98 10 17 C8.72125 17.061875 7.4425 17.12375 6.125 17.1875 C5.04605469 17.23970703 5.04605469 17.23970703 3.9453125 17.29296875 C3.30335938 17.19628906 2.66140625 17.09960938 2 17 C-0.49118953 13.2632157 -0.2065226 11.25548181 -0.125 6.8125 C-0.10695313 5.54019531 -0.08890625 4.26789062 -0.0703125 2.95703125 C-0.04710937 1.98121094 -0.02390625 1.00539063 0 0 Z " fill="#1790AC" transform="translate(361,777)"/>
<path d="M0 0 C1.53125 1.21875 1.53125 1.21875 3 3 C3.0462985 6.19459646 2.23541847 9.06451452 1 12 C-1.625 14.0625 -1.625 14.0625 -4 15 C-3.32584613 9.7415998 -1.75734451 4.97361654 0 0 Z " fill="#B7D5B2" transform="translate(554,394)"/>
<path d="M0 0 C1.67542976 0.28604898 3.34385343 0.61781233 5 1 C5 2.65 5 4.3 5 6 C3.02 6.99 3.02 6.99 1 8 C-0.5625 6.75 -0.5625 6.75 -2 5 C-1.74853421 2.86254078 -1.54074221 1.54074221 0 0 Z " fill="#BEC5C6" transform="translate(534,769)"/>
<path d="M0 0 C0.66 0 1.32 0 2 0 C3.75179535 5.25538604 3.64761951 9.48888781 1.5 14.5 C0.7575 15.7375 0.7575 15.7375 0 17 C-0.33 17 -0.66 17 -1 17 C-0.67 11.39 -0.34 5.78 0 0 Z " fill="#053963" transform="translate(380,419)"/>
<path d="M0 0 C2.62187494 1.04874998 3.79371361 1.64931313 5.25 4.125 C5.4975 4.74375 5.745 5.3625 6 6 C5.34 6 4.68 6 4 6 C4 6.99 4 7.98 4 9 C-0.62 9 -5.24 9 -10 9 C-9.67 8.34 -9.34 7.68 -9 7 C-5.04 7.33 -1.08 7.66 3 8 C2.34 6.68 1.68 5.36 1 4 C-2.05908413 3.18415432 -2.05908413 3.18415432 -5 3 C-5 2.67 -5 2.34 -5 2 C-3.35 2 -1.7 2 0 2 C0 1.34 0 0.68 0 0 Z " fill="#51AEC4" transform="translate(730,774)"/>
<path d="M0 0 C2.31 0 4.62 0 7 0 C7 1.98 7 3.96 7 6 C4.69 6 2.38 6 0 6 C0 4.02 0 2.04 0 0 Z " fill="#10A2B7" transform="translate(761,277)"/>
<path d="M0 0 C0.99 0 1.98 0 3 0 C3 4.29 3 8.58 3 13 C2.01 13.33 1.02 13.66 0 14 C0 9.38 0 4.76 0 0 Z " fill="#098CAC" transform="translate(456,774)"/>
<path d="M0 0 C5.75 -0.125 5.75 -0.125 8 1 C7.67 2.32 7.34 3.64 7 5 C4.36 5 1.72 5 -1 5 C-0.67 3.35 -0.34 1.7 0 0 Z " fill="#D7D8D8" transform="translate(614,786)"/>
<path d="M0 0 C2.375 -0.125 2.375 -0.125 5 0 C7 2 7 2 7 5 C3.7 5.33 0.4 5.66 -3 6 C-2.67 5.34 -2.34 4.68 -2 4 C-1.34 4 -0.68 4 0 4 C0 2.68 0 1.36 0 0 Z " fill="#C8C5C5" transform="translate(381,777)"/>
<path d="M0 0 C0 0.66 0 1.32 0 2 C-3.22791555 4.1519437 -4.28400809 4.20086443 -8 4 C-8.66 2.68 -9.32 1.36 -10 0 C-6.33694766 -0.74926071 -3.57644848 -1.2380014 0 0 Z " fill="#EDEFEE" transform="translate(513,444)"/>
<path d="M0 0 C4.29 0 8.58 0 13 0 C13.33 0.99 13.66 1.98 14 3 C12.41753293 3.08153933 10.83383727 3.13943557 9.25 3.1875 C8.36828125 3.22230469 7.4865625 3.25710938 6.578125 3.29296875 C4 3 4 3 0 0 Z " fill="#BAC1C3" transform="translate(308,715)"/>
<path d="M0 0 C0.66 0 1.32 0 2 0 C2.84681133 5.08086796 3.09038099 9.84828377 3 15 C2.01 15.495 2.01 15.495 1 16 C-0.12862175 10.63904667 -0.09688221 5.44693314 0 0 Z " fill="#E7E8E8" transform="translate(334,368)"/>
<path d="M0 0 C0.66 0 1.32 0 2 0 C2 3.63 2 7.26 2 11 C1.01 11 0.02 11 -1 11 C-2.26264601 6.70700357 -1.62950412 4.12168689 0 0 Z " fill="#0288A8" transform="translate(389,783)"/>
<path d="M0 0 C0.99 0 1.98 0 3 0 C3.08131463 1.43655854 3.13933559 2.8744483 3.1875 4.3125 C3.23970703 5.51326172 3.23970703 5.51326172 3.29296875 6.73828125 C3 9 3 9 0 12 C0 8.04 0 4.08 0 0 Z " fill="#028DA8" transform="translate(471,774)"/>
<path d="M0 0 C5.94 0.99 5.94 0.99 12 2 C12 2.66 12 3.32 12 4 C8.37 4 4.74 4 1 4 C0.67 2.68 0.34 1.36 0 0 Z " fill="#1090AB" transform="translate(591,790)"/>
<path d="M0 0 C0.33 0 0.66 0 1 0 C1.33 1.65 1.66 3.3 2 5 C4.31 5.33 6.62 5.66 9 6 C8.67 6.66 8.34 7.32 8 8 C5.03 8 2.06 8 -1 8 C-1.04241723 5.66705225 -1.04092937 3.33297433 -1 1 C-0.67 0.67 -0.34 0.34 0 0 Z " fill="#0287A4" transform="translate(285,786)"/>
<path d="M0 0 C0.99 0 1.98 0 3 0 C3 1.65 3 3.3 3 5 C-0.63 5 -4.26 5 -8 5 C-8 4.34 -8 3.68 -8 3 C-5.36 3 -2.72 3 0 3 C0 2.01 0 1.02 0 0 Z " fill="#0B95B4" transform="translate(734,780)"/>
<path d="M0 0 C3.63 0.33 7.26 0.66 11 1 C11 1.33 11 1.66 11 2 C9.35 2.33 7.7 2.66 6 3 C7.65 3.33 9.3 3.66 11 4 C11 4.33 11 4.66 11 5 C4.64948454 5.36637589 4.64948454 5.36637589 1.5625 3.625 C0 2 0 2 0 0 Z " fill="#409BAF" transform="translate(479,790)"/>
<path d="M0 0 C2.375 -0.125 2.375 -0.125 5 0 C7 2 7 2 7 5 C4.03 5 1.06 5 -2 5 C-1.01 4.67 -0.02 4.34 1 4 C0.67 2.68 0.34 1.36 0 0 Z " fill="#E1DDDE" transform="translate(676,777)"/>
<path d="M0 0 C2.78637633 4.1795645 1.79562512 6.14668677 1 11 C0.67 11 0.34 11 0 11 C-0.33 8.69 -0.66 6.38 -1 4 C-3.64 3.67 -6.28 3.34 -9 3 C-9 2.67 -9 2.34 -9 2 C-6.94921875 1.77213542 -4.8984375 1.54427083 -2.84765625 1.31640625 C-0.98859771 1.18113386 -0.98859771 1.18113386 0 0 Z " fill="#389CB3" transform="translate(339,774)"/>
<path d="M0 0 C2.64 0 5.28 0 8 0 C8 1.32 8 2.64 8 4 C5.03 3.67 2.06 3.34 -1 3 C-0.67 2.01 -0.34 1.02 0 0 Z " fill="#2094AE" transform="translate(486,774)"/>
<path d="M0 0 C2.22698735 3.34048103 2.2711921 4.53285581 2.25 8.4375 C2.25515625 9.38496094 2.2603125 10.33242188 2.265625 11.30859375 C1.99748089 14.02552453 1.38531142 15.67465583 0 18 C-1.1365988 12.94844979 -0.73372684 9.05456267 0 4 C0 2.68 0 1.36 0 0 Z " fill="#B5BDC2" transform="translate(337,687)"/>
<path d="M0 0 C-2.3125 2.5 -2.3125 2.5 -5 5 C-5.99 5 -6.98 5 -8 5 C-10.67398476 6.93897879 -10.67398476 6.93897879 -13 9 C-12.01387981 5.44996731 -11.08032022 4.06604107 -8.1875 1.6875 C-5.02614631 0.01384216 -3.49010259 -0.4106003 0 0 Z " fill="#CFD4D6" transform="translate(574,677)"/>
<path d="M0 0 C6.27 0 12.54 0 19 0 C18.67 1.65 18.34 3.3 18 5 C17.67 3.68 17.34 2.36 17 1 C14.56152549 1.11397544 12.12486826 1.24070974 9.6875 1.375 C8.65206055 1.42140625 8.65206055 1.42140625 7.59570312 1.46875 C3.93009211 1.68124919 2.12099208 1.91933861 -1 4 C-0.67 2.68 -0.34 1.36 0 0 Z " fill="#1EA8C5" transform="translate(734,659)"/>
<path d="M0 0 C0.99 0.33 1.98 0.66 3 1 C0.125 7.75 0.125 7.75 -1 10 C-3 8 -3 8 -3.3125 5.5625 C-2.95209822 2.60720543 -2.28773145 1.81112073 0 0 Z " fill="#0E8BA9" transform="translate(483,774)"/>
<path d="M0 0 C1.22589844 0.01353516 1.22589844 0.01353516 2.4765625 0.02734375 C3.41628906 0.04474609 3.41628906 0.04474609 4.375 0.0625 C4.045 0.7225 3.715 1.3825 3.375 2.0625 C0.87109375 2.6953125 0.87109375 2.6953125 -2.1875 3.1875 C-3.70537109 3.43886719 -3.70537109 3.43886719 -5.25390625 3.6953125 C-6.42759766 3.87707031 -6.42759766 3.87707031 -7.625 4.0625 C-7.295 3.0725 -6.965 2.0825 -6.625 1.0625 C-4.21954362 -0.14022819 -2.67503047 -0.03821472 0 0 Z " fill="#128FAC" transform="translate(382.625,773.9375)"/>
<path d="M0 0 C0.66 0.33 1.32 0.66 2 1 C2 5.29 2 9.58 2 14 C1.67 14 1.34 14 1 14 C-0.44209192 9.49346274 -1.34223148 5.79124078 -1 1 C-0.67 0.67 -0.34 0.34 0 0 Z " fill="#C1C5C7" transform="translate(276,686)"/>
<path d="M0 0 C0.66 0.33 1.32 0.66 2 1 C1.37321829 4.66172475 0.35548154 7.8818995 -1.0625 11.3125 C-1.42472656 12.19550781 -1.78695312 13.07851563 -2.16015625 13.98828125 C-2.43730469 14.65214844 -2.71445312 15.31601562 -3 16 C-3.33 15.34 -3.66 14.68 -4 14 C-3.690625 13.113125 -3.38125 12.22625 -3.0625 11.3125 C-1.90414902 7.70117046 -1.84927983 4.7680043 -2 1 C-1.34 0.67 -0.68 0.34 0 0 Z " fill="#DDE1E1" transform="translate(731,659)"/>
<path d="M0 0 C0.66 0 1.32 0 2 0 C2 6.93 2 13.86 2 21 C1.67 21 1.34 21 1 21 C1 15.06 1 9.12 1 3 C0.01 3.33 -0.98 3.66 -2 4 C-1.34 2.68 -0.68 1.36 0 0 Z " fill="#21AEC9" transform="translate(667,394)"/>
<path d="M0 0 C0.99 0.33 1.98 0.66 3 1 C2.979375 1.78375 2.95875 2.5675 2.9375 3.375 C2.81315937 5.98114961 2.81315937 5.98114961 4 8 C3.01 9.485 3.01 9.485 2 11 C1.34 11 0.68 11 0 11 C0 7.37 0 3.74 0 0 Z " fill="#B2D2AD" transform="translate(554,366)"/>
<path d="M0 0 C0.33 0 0.66 0 1 0 C1.08121924 1.60332791 1.13929134 3.20784026 1.1875 4.8125 C1.22230469 5.70582031 1.25710938 6.59914063 1.29296875 7.51953125 C1 10 1 10 -0.38671875 11.82421875 C-2 13 -2 13 -4 13 C-3.69320313 12.43796875 -3.38640625 11.8759375 -3.0703125 11.296875 C-1.97042415 8.93653066 -1.39904149 6.79534438 -0.875 4.25 C-0.70742188 3.45078125 -0.53984375 2.6515625 -0.3671875 1.828125 C-0.24601562 1.22484375 -0.12484375 0.6215625 0 0 Z " fill="#0588A2" transform="translate(341,788)"/>
<path d="M0 0 C0.66 0.33 1.32 0.66 2 1 C1.525625 1.5775 1.05125 2.155 0.5625 2.75 C-0.9484867 4.92582084 -1.54036151 6.42602448 -2 9 C-2.66 9 -3.32 9 -4 9 C-4 8.34 -4 7.68 -4 7 C-5.32 7.33 -6.64 7.66 -8 8 C-5.33333333 5.33333333 -2.66666667 2.66666667 0 0 Z " fill="#DDE2E3" transform="translate(714,750)"/>
<path d="M0 0 C-1.44813592 3.37898381 -3.32940727 5.49631932 -6 8 C-6.66 8.66 -7.32 9.32 -8 10 C-7.30900988 3.91928698 -6.72220126 0 0 0 Z " fill="#DDE0E1" transform="translate(736,713)"/>
<path d="M0 0 C4.95 0 9.9 0 15 0 C14.34 1.32 13.68 2.64 13 4 C12.67 3.01 12.34 2.02 12 1 C10.35333797 1.1135629 8.70763918 1.24117381 7.0625 1.375 C6.14597656 1.44460938 5.22945312 1.51421875 4.28515625 1.5859375 C3.53105469 1.72257812 2.77695312 1.85921875 2 2 C1.67 2.66 1.34 3.32 1 4 C0.34 4 -0.32 4 -1 4 C-0.67 2.68 -0.34 1.36 0 0 Z " fill="#BEC8BF" transform="translate(520,372)"/>
<path d="M0 0 C1.8871875 0.0309375 1.8871875 0.0309375 3.8125 0.0625 C2.03805028 2.30856427 1.22897515 3.01331002 -1.66796875 3.35546875 C-2.56128906 3.32066406 -3.45460938 3.28585937 -4.375 3.25 C-5.27605469 3.22292969 -6.17710937 3.19585937 -7.10546875 3.16796875 C-8.13607422 3.11576172 -8.13607422 3.11576172 -9.1875 3.0625 C-6.30623588 0.18123588 -3.90053134 -0.06394314 0 0 Z " fill="#DDDCDA" transform="translate(486.1875,284.9375)"/>
<path d="M0 0 C-1 1.5 -1 1.5 -3 3 C-5.71846235 3.27345479 -8.25677199 3.13491285 -11 3 C-11 2.34 -11 1.68 -11 1 C-3.57142857 -1.42857143 -3.57142857 -1.42857143 0 0 Z " fill="#1A96AF" transform="translate(736,791)"/>
<path d="M0 0 C7.75 -0.125 7.75 -0.125 10 1 C9.67 1.99 9.34 2.98 9 4 C5.7 3.34 2.4 2.68 -1 2 C-0.67 1.34 -0.34 0.68 0 0 Z " fill="#0B95B1" transform="translate(596,774)"/>
<path d="M0 0 C3.3 0 6.6 0 10 0 C9.67 0.99 9.34 1.98 9 3 C5.7 3 2.4 3 -1 3 C-0.67 2.01 -0.34 1.02 0 0 Z " fill="#E5E6E4" transform="translate(445,508)"/>
<path d="M0 0 C0.66 0 1.32 0 2 0 C1.67 2.64 1.34 5.28 1 8 C-0.32 8 -1.64 8 -3 8 C-1.125 2.25 -1.125 2.25 0 0 Z " fill="#1A98B2" transform="translate(564,786)"/>
<path d="M0 0 C2.39763185 2.39763185 2.34280586 3.33273498 2.625 6.625 C2.69976562 7.44226563 2.77453125 8.25953125 2.8515625 9.1015625 C2.90054687 9.72804688 2.94953125 10.35453125 3 11 C2.01 11.66 1.02 12.32 0 13 C0 8.71 0 4.42 0 0 Z " fill="#D2D2D1" transform="translate(275,693)"/>
<path d="M0 0 C2 3 2 3 1.625 6.1875 C1.41875 7.115625 1.2125 8.04375 1 9 C1.66 9.33 2.32 9.66 3 10 C2.01 10.66 1.02 11.32 0 12 C-1.12256131 9.75487738 -1.13413762 8.48543351 -1.125 6 C-1.12886719 4.948125 -1.12886719 4.948125 -1.1328125 3.875 C-1 2 -1 2 0 0 Z " fill="#013762" transform="translate(380,370)"/>
<path d="M0 0 C0.66 0 1.32 0 2 0 C2.99 2.31 3.98 4.62 5 7 C3.35 6.67 1.7 6.34 0 6 C-0.38218767 4.34385343 -0.71395102 2.67542976 -1 1 C-0.67 0.67 -0.34 0.34 0 0 Z " fill="#1592AA" transform="translate(584,787)"/>
<path d="M0 0 C0.33 0 0.66 0 1 0 C1 2.97 1 5.94 1 9 C0.01 9 -0.98 9 -2 9 C-2.125 5.625 -2.125 5.625 -2 2 C-1.34 1.34 -0.68 0.68 0 0 Z " fill="#058CAB" transform="translate(443,785)"/>
<path d="M0 0 C5.75 1.75 5.75 1.75 8 4 C5.69 4.33 3.38 4.66 1 5 C0.67 3.35 0.34 1.7 0 0 Z " fill="#C8E2C4" transform="translate(496,443)"/>
<path d="M0 0 C0.80824219 0.19464844 1.61648438 0.38929688 2.44921875 0.58984375 C3.06410156 0.74582031 3.67898438 0.90179687 4.3125 1.0625 C4.3125 1.3925 4.3125 1.7225 4.3125 2.0625 C2.3325 2.0625 0.3525 2.0625 -1.6875 2.0625 C-1.6875 2.7225 -1.6875 3.3825 -1.6875 4.0625 C-6.5625 2.3125 -6.5625 2.3125 -7.6875 0.0625 C-4.39053895 -1.03648702 -3.28255097 -0.80874444 0 0 Z " fill="#35A3BA" transform="translate(726.6875,789.9375)"/>
<path d="M0 0 C-1.6875 1.5625 -1.6875 1.5625 -4 3 C-6.75 2.6875 -6.75 2.6875 -9 2 C-9 1.34 -9 0.68 -9 0 C-5.62182575 -0.84454356 -3.32534757 -1.10844919 0 0 Z " fill="#158C9F" transform="translate(339,790)"/>
<path d="M0 0 C0.99 0.33 1.98 0.66 3 1 C2.51917969 1.36738281 2.03835938 1.73476563 1.54296875 2.11328125 C-0.61204917 4.74840443 -0.50672346 6.82505636 -0.6875 10.1875 C-0.75324219 11.27417969 -0.81898438 12.36085938 -0.88671875 13.48046875 C-0.92410156 14.31191406 -0.96148438 15.14335938 -1 16 C-1.33 16 -1.66 16 -2 16 C-2.05384521 13.70858714 -2.09272087 11.41681812 -2.125 9.125 C-2.14820313 7.84882812 -2.17140625 6.57265625 -2.1953125 5.2578125 C-2 2 -2 2 0 0 Z " fill="#D8D6D7" transform="translate(662,778)"/>
<path d="M0 0 C2.66666667 0 5.33333333 0 8 0 C7.67 0.99 7.34 1.98 7 3 C4.4375 4.1875 4.4375 4.1875 2 5 C2 4.34 2 3.68 2 3 C1.34 3 0.68 3 0 3 C0 2.01 0 1.02 0 0 Z " fill="#218FAB" transform="translate(444,774)"/>
<path d="M0 0 C0.66 0 1.32 0 2 0 C2 2.64 2 5.28 2 8 C1.01 8.33 0.02 8.66 -1 9 C-1.125 2.25 -1.125 2.25 0 0 Z " fill="#0D86A5" transform="translate(306,775)"/>
<path d="M0 0 C-0.33 1.32 -0.66 2.64 -1 4 C-2.98 4 -4.96 4 -7 4 C-7 3.01 -7 2.02 -7 1 C-4.50935112 0.31292445 -2.62113708 0 0 0 Z " fill="#E5E4E5" transform="translate(456,565)"/>
<path d="M0 0 C0.08159574 4.16138263 -0.01751476 7.9472484 -1 12 C-1.33 12 -1.66 12 -2 12 C-2.33 8.37 -2.66 4.74 -3 1 C-1 0 -1 0 0 0 Z " fill="#D6DBDD" transform="translate(385,416)"/>
<path d="M0 0 C0.66 1.32 1.32 2.64 2 4 C-2.75 7 -2.75 7 -5 7 C-3.70700306 4.11562221 -2.34058637 2.12780579 0 0 Z " fill="#1997B4" transform="translate(532,778)"/>
<path d="M0 0 C1.32 0 2.64 0 4 0 C4.33 1.32 4.66 2.64 5 4 C2.69 4 0.38 4 -2 4 C-1.34 2.68 -0.68 1.36 0 0 Z " fill="#CED7D9" transform="translate(723,777)"/>
<path d="M0 0 C2.31 0.66 4.62 1.32 7 2 C7 2.33 7 2.66 7 3 C4.98177083 3.42317708 2.96354167 3.84635417 0.9453125 4.26953125 C-1.37046549 4.92308838 -1.37046549 4.92308838 -3 8 C-3.36923077 3.44615385 -3.36923077 3.44615385 -1.5 1.1875 C-1.005 0.795625 -0.51 0.40375 0 0 Z " fill="#1E9EB8" transform="translate(594,774)"/>
<path d="M0 0 C6.0546875 -0.1953125 6.0546875 -0.1953125 8 0 C8.66 0.66 9.32 1.32 10 2 C4.06 2.495 4.06 2.495 -2 3 C-1.34 2.67 -0.68 2.34 0 2 C0 1.34 0 0.68 0 0 Z " fill="#EEEDEB" transform="translate(467,516)"/>
<path d="M0 0 C0.33 0 0.66 0 1 0 C1 2.97 1 5.94 1 9 C-1.97 9 -4.94 9 -8 9 C-4 7 -4 7 -1 6 C-0.67 4.02 -0.34 2.04 0 0 Z " fill="#1AA9C1" transform="translate(759,285)"/>
<path d="M0 0 C1.69141656 0.08963062 3.37959602 0.24577676 5.0625 0.4375 C6.44115234 0.59025391 6.44115234 0.59025391 7.84765625 0.74609375 C8.55792969 0.82988281 9.26820313 0.91367187 10 1 C10 1.33 10 1.66 10 2 C4.62694301 3.67357513 4.62694301 3.67357513 2 4 C0 2.625 0 2.625 -1 1 C-0.67 0.67 -0.34 0.34 0 0 Z " fill="#2DA1B7" transform="translate(610,790)"/>
<path d="M0 0 C0.66 0.99 1.32 1.98 2 3 C1.34 4.32 0.68 5.64 0 7 C-0.33 6.67 -0.66 6.34 -1 6 C-1.66 6.66 -2.32 7.32 -3 8 C-3.36923077 3.44615385 -3.36923077 3.44615385 -1.5 1.1875 C-1.005 0.795625 -0.51 0.40375 0 0 Z " fill="#2198B1" transform="translate(377,783)"/>
<path d="M0 0 C0.33 0 0.66 0 1 0 C1.12375 0.804375 1.2475 1.60875 1.375 2.4375 C1.58125 3.283125 1.7875 4.12875 2 5 C2.66 5.33 3.32 5.66 4 6 C2.25 9.875 2.25 9.875 0 11 C0 7.37 0 3.74 0 0 Z " fill="#CFDADD" transform="translate(557,659)"/>
<path d="M0 0 C0.66 0 1.32 0 2 0 C3.625 2 3.625 2 5 4 C4.01 5.32 3.02 6.64 2 8 C0.23537317 4.91190305 0 3.76687864 0 0 Z " fill="#E4E6E6" transform="translate(390,446)"/>
<path d="M0 0 C0.66 0.99 1.32 1.98 2 3 C1.67 3.99 1.34 4.98 1 6 C-1.97 5.67 -4.94 5.34 -8 5 C-8 4.67 -8 4.34 -8 4 C-6.865625 3.71125 -5.73125 3.4225 -4.5625 3.125 C-3.386875 2.75375 -2.21125 2.3825 -1 2 C-0.67 1.34 -0.34 0.68 0 0 Z " fill="#3099B1" transform="translate(604,787)"/>
<path d="M0 0 C1.98 0.495 1.98 0.495 4 1 C3.67 2.32 3.34 3.64 3 5 C1.68 4.67 0.36 4.34 -1 4 C-0.67 2.68 -0.34 1.36 0 0 Z " fill="#1E89A8" transform="translate(350,765)"/>
<path d="M0 0 C0.33 0 0.66 0 1 0 C2.125 5.75 2.125 5.75 1 8 C0.01 7.67 -0.98 7.34 -2 7 C-1.34 4.69 -0.68 2.38 0 0 Z " fill="#E1E1E0" transform="translate(343,462)"/>
<path d="M0 0 C0.99 0.33 1.98 0.66 3 1 C3 3.97 3 6.94 3 10 C-0.00617269 6.99382731 0.40414684 4.17618402 0 0 Z " fill="#EEEEED" transform="translate(341,341)"/>
<path d="M0 0 C3.3 0 6.6 0 10 0 C10 0.66 10 1.32 10 2 C10.66 2.33 11.32 2.66 12 3 C10.02 3 8.04 3 6 3 C6 2.67 6 2.34 6 2 C3.03 1.505 3.03 1.505 0 1 C0 0.67 0 0.34 0 0 Z " fill="#3194AB" transform="translate(287,791)"/>
<path d="M0 0 C0.66 0 1.32 0 2 0 C2 1.32 2 2.64 2 4 C2.66 4 3.32 4 4 4 C3.67 4.99 3.34 5.98 3 7 C2.01 7 1.02 7 0 7 C0 4.69 0 2.38 0 0 Z " fill="#0286AA" transform="translate(657,774)"/>
<path d="M0 0 C0.66 0 1.32 0 2 0 C1.39301257 4.12751449 -0.03810791 7.3321148 -2 11 C-2.95465783 8.83032311 -3.14401212 7.43671207 -2.3984375 5.17578125 C-1.64129615 3.4315257 -0.82390802 1.71372869 0 0 Z " fill="#E1E8EB" transform="translate(557,552)"/>
<path d="M0 0 C1.98 0 3.96 0 6 0 C6 0.99 6 1.98 6 3 C3.29120665 4.35439668 0.99066732 4.06501451 -2 4 C-2 3.67 -2 3.34 -2 3 C-0.35 2.67 1.3 2.34 3 2 C2.01 1.34 1.02 0.68 0 0 Z " fill="#3F9DB3" transform="translate(533,791)"/>
<path d="M0 0 C0.66 0.33 1.32 0.66 2 1 C1.67 2.98 1.34 4.96 1 7 C0.34 6.01 -0.32 5.02 -1 4 C-1.66 5.32 -2.32 6.64 -3 8 C-3.36923077 3.44615385 -3.36923077 3.44615385 -1.5 1.1875 C-1.005 0.795625 -0.51 0.40375 0 0 Z " fill="#2F9EB7" transform="translate(672,783)"/>
<path d="M0 0 C1.32 0 2.64 0 4 0 C3.6875 1.9375 3.6875 1.9375 3 4 C2.01 4.33 1.02 4.66 0 5 C-0.5625 3.0625 -0.5625 3.0625 -1 1 C-0.67 0.67 -0.34 0.34 0 0 Z " fill="#1396B4" transform="translate(573,767)"/>
<path d="M0 0 C0.66 0 1.32 0 2 0 C0.70700306 2.88437779 -0.65941363 4.87219421 -3 7 C-3.66 6.67 -4.32 6.34 -5 6 C-3.38405168 3.95880212 -1.7143618 1.95927063 0 0 Z " fill="#BECACE" transform="translate(477,676)"/>
<path d="M0 0 C0.99 0.33 1.98 0.66 3 1 C2.67 2.98 2.34 4.96 2 7 C0.4375 5.75 0.4375 5.75 -1 4 C-0.6875 1.8125 -0.6875 1.8125 0 0 Z " fill="#E9EAEA" transform="translate(399,462)"/>
<path d="M0 0 C1.32 0.66 2.64 1.32 4 2 C3.1875 3.9375 3.1875 3.9375 2 6 C1.01 6.33 0.02 6.66 -1 7 C-0.67 4.69 -0.34 2.38 0 0 Z " fill="#E0E4E0" transform="translate(549,397)"/>
<path d="M0 0 C2.625 -0.1875 2.625 -0.1875 5 0 C5 0.99 5 1.98 5 3 C2.69 3 0.38 3 -2 3 C-1.34 2.01 -0.68 1.02 0 0 Z " fill="#003662" transform="translate(450,247)"/>
<path d="M0 0 C2.86724686 0.57344937 3.8614515 0.8614515 6 3 C4.35 3.33 2.7 3.66 1 4 C0.67 2.68 0.34 1.36 0 0 Z " fill="#1995A7" transform="translate(324,797)"/>
<path d="M0 0 C0 3.20395416 -0.74335022 5.09399739 -2 8 C-2.66 7.67 -3.32 7.34 -4 7 C-3.6875 4.625 -3.6875 4.625 -3 2 C-2.01 1.34 -1.02 0.68 0 0 Z " fill="#B5C2C6" transform="translate(533,782)"/>
<path d="M0 0 C0.99 0.33 1.98 0.66 3 1 C3.33 1.99 3.66 2.98 4 4 C3.01 4.33 2.02 4.66 1 5 C0.34 4.67 -0.32 4.34 -1 4 C-0.67 2.68 -0.34 1.36 0 0 Z " fill="#BDCACE" transform="translate(595,777)"/>
<path d="M0 0 C2.625 0.9375 2.625 0.9375 5 2 C5 2.33 5 2.66 5 3 C2.69 3.66 0.38 4.32 -2 5 C-2 3.68 -2 2.36 -2 1 C-1.34 0.67 -0.68 0.34 0 0 Z " fill="#299BB6" transform="translate(700,774)"/>
<path d="M0 0 C0.99 0.33 1.98 0.66 3 1 C2.67 1.99 2.34 2.98 2 4 C-0.97 3.67 -3.94 3.34 -7 3 C-7 2.67 -7 2.34 -7 2 C-4.69 2 -2.38 2 0 2 C0 1.34 0 0.68 0 0 Z " fill="#33A1B8" transform="translate(622,774)"/>
<path d="M0 0 C0.66 0.33 1.32 0.66 2 1 C1.625 3.9375 1.625 3.9375 1 7 C0.01 7.495 0.01 7.495 -1 8 C-1.04241723 5.66705225 -1.04092937 3.33297433 -1 1 C-0.67 0.67 -0.34 0.34 0 0 Z " fill="#013560" transform="translate(396,683)"/>
<path d="M0 0 C0.99 0 1.98 0 3 0 C3 0.66 3 1.32 3 2 C5.64 2 8.28 2 11 2 C11 2.33 11 2.66 11 3 C7.37 3 3.74 3 0 3 C0 2.01 0 1.02 0 0 Z " fill="#B5BDC3" transform="translate(307,655)"/>
<path d="M0 0 C1.98 0 3.96 0 6 0 C5.67 0.99 5.34 1.98 5 3 C3.35 3 1.7 3 0 3 C0 2.01 0 1.02 0 0 Z " fill="#DDDCDB" transform="translate(307,652)"/>
</svg>
